<?xml version="1.0" encoding="utf-8"?>
<!-- Generator: Adobe Illustrator 22.0.1, SVG Export Plug-In . SVG Version: 6.00 Build 0)  -->
<svg version="1.1" id="Layer_1" xmlns="http://www.w3.org/2000/svg" xmlns:xlink="http://www.w3.org/1999/xlink" x="0px" y="0px"
	 width="360px" height="102px" viewBox="0 0 360 102" style="enable-background:new 0 0 360 102;" xml:space="preserve">
<style type="text/css">
	.st0{fill:#FF6C0C;}
</style>
<path class="st0" d="M306.7,93.9h13.9V64.4c0-7,3.2-15.9,13.6-15.9c7,0,10.2,3.4,10.2,11.4v34.1h13.9V55.9c0-16.7-11.2-20.8-21-20.8
	c-7.8,0-13.4,3.1-16.5,7h-0.2V10.8h-13.9V93.9z M302.4,51.4c-3.5-8.6-10.3-16.4-24.3-16.4c-18.6,0-29.4,13-29.4,30.1
	s10.8,30.1,28.4,30.1c15.6,0,22.2-9.2,26-17.6l-11.8-6.2c-2.2,5.2-5.7,11.1-14,11.1c-9.7,0-14.1-8.4-14.1-17.4s5-17.4,14.9-17.4
	c5.7,0,10.6,3.8,12.2,9.2L302.4,51.4z M201.5,57.8c1.6-6.8,7.8-11.6,14.9-11.4c9.3,0,13.1,8.3,13.1,11.4H201.5z M244,68.5
	c0-20.6-8.4-33.4-27.6-33.4c-18.6,0-29.4,13-29.4,30.1s10.8,30.1,29.4,30.1c15.7,0,24-7.5,28.3-14.1L233,74.4
	c-1.4,1.9-5.7,8.2-16.6,8.2c-7.5,0-14.7-5.6-14.9-14.1H244z M160,23.9v56.8c0,8.8,3.9,13.9,15.2,13.9c3.7-0.1,7.4-0.5,11-1.4V81.9
	c-2,0.3-4.1,0.6-6.1,0.7c-5.3,0-6.2-2.5-6.2-7V46.4h12.4v-10h-12.4V10L160,23.9z M136.8,93.9h13.9V10.8h-13.9L136.8,93.9z M113,73.4
	c0,7.4-8.3,10.6-14.8,10.6c-5,0-9-2.8-9-7.1c0-5.5,4.3-6.9,9.5-8l7.6-1.6c2.3-0.4,4.5-1,6.6-2L113,73.4z M126.9,53.9
	c0-16.4-12.4-18.9-24.8-18.9c-12.6,0-24.6,5.2-24.6,18.7l13.9,0.6c0-6.2,2.6-8.6,10.7-8.6c6,0,10.9,1.6,10.9,7.3v1.7
	c-3.5,1.2-10,2.4-15,3.4l-5.8,1.1C83.7,61,74.7,66,74.7,77.2s8.6,18.1,19.6,18.1c6.8,0.1,13.5-2.3,18.8-6.6c0,1.8,0.5,3.6,1.4,5.2
	H129c-0.8-1.2-2.2-3.8-2.2-9.6L126.9,53.9z M72.6,36.4C68.7,19.5,56.3,11,40.1,11C15.9,11,1.7,30.6,1.7,53.5S14.2,96,40.1,96
	c16.1,0,26.9-7.8,33.4-24.1l-13.9-6.4c-3,9.4-9,16.4-19.5,16.4c-16.1,0-22.8-14.3-22.8-28.4S24,25.1,40.1,25.1
	c9.2,0,16.6,6.1,17.8,15.1L72.6,36.4z"/>
</svg>
