<?xml version="1.0" encoding="utf-8"?>
<!-- Generator: Adobe Illustrator 22.0.1, SVG Export Plug-In . SVG Version: 6.00 Build 0)  -->
<svg version="1.1" id="Layer_1" xmlns="http://www.w3.org/2000/svg" xmlns:xlink="http://www.w3.org/1999/xlink" x="0px" y="0px"
	 viewBox="0 0 720 540" style="enable-background:new 0 0 720 540;" xml:space="preserve">
<style type="text/css">
	.st0{display:none;}
	.st1{display:inline;}
	.st2{display:inline;clip-path:url(#SVGID_2_);fill-rule:evenodd;clip-rule:evenodd;fill:#FFFFFF;}
	.st3{clip-path:url(#SVGID_4_);}
	.st4{clip-path:url(#SVGID_6_);}
	.st5{font-family:'Times-Roman';}
	.st6{font-size:29.6579px;}
	.st7{font-family:'Times-Italic';}
	.st8{font-size:17.146px;}
	.st9{clip-path:url(#SVGID_8_);fill:none;stroke:#0433FF;stroke-width:2.25;stroke-linejoin:round;stroke-miterlimit:10;}
	.st10{clip-path:url(#SVGID_10_);}
	.st11{clip-path:url(#SVGID_12_);}
	.st12{font-size:40.5px;}
	.st13{clip-path:url(#SVGID_14_);fill:none;stroke:#0433FF;stroke-width:3;stroke-linejoin:round;stroke-miterlimit:10;}
	.st14{clip-path:url(#SVGID_16_);}
	.st15{clip-path:url(#SVGID_18_);}
	.st16{clip-path:url(#SVGID_20_);fill:none;stroke:#0433FF;stroke-width:3;stroke-linejoin:round;stroke-miterlimit:10;}
	.st17{clip-path:url(#SVGID_20_);fill-rule:evenodd;clip-rule:evenodd;fill:#0433FF;}
	.st18{clip-path:url(#SVGID_22_);}
	.st19{clip-path:url(#SVGID_24_);}
	.st20{font-size:29.625px;}
	.st21{clip-path:url(#SVGID_26_);}
	.st22{clip-path:url(#SVGID_28_);}
</style>
<g class="st0">
	<defs>
		<rect id="SVGID_1_" width="720" height="540"/>
	</defs>
	<clipPath id="SVGID_2_" class="st1">
		<use xlink:href="#SVGID_1_"  style="overflow:visible;"/>
	</clipPath>
	<rect y="0" class="st2" width="720" height="540"/>
</g>
<g>
	<defs>
		<rect id="SVGID_3_" x="160.6" y="34.8" width="396" height="140.9"/>
	</defs>
	<clipPath id="SVGID_4_">
		<use xlink:href="#SVGID_3_"  style="overflow:visible;"/>
	</clipPath>
	<g class="st3">
		<defs>
			<rect id="SVGID_5_" x="160.6" y="34.8" width="396" height="140.9"/>
		</defs>
		<clipPath id="SVGID_6_">
			<use xlink:href="#SVGID_5_"  style="overflow:visible;"/>
		</clipPath>
		<g class="st4">
			<text transform="matrix(1.0826 0 0 1 165.3071 62.2456)" class="st5 st6">m</text>
		</g>
		<g class="st4">
			<text transform="matrix(1.0826 0 0 1 190.2246 62.2456)" class="st5 st6">i</text>
		</g>
		<g class="st4">
			<text transform="matrix(1.0826 0 0 1 199.0874 62.2456)" class="st5 st6">n</text>
		</g>
		<g class="st4">
			<text transform="matrix(1.0826 0 0 1 179.271 79.3916)" class="st7 st8">x</text>
		</g>
		<g class="st4">
			<text transform="matrix(1.0826 0 0 1 188.0503 79.3916)" class="st5 st8">,</text>
		</g>
		<g class="st4">
			<text transform="matrix(1.0826 0 0 1 193.3184 79.3916)" class="st7 st8">u</text>
		</g>
		<g class="st4">
			<text transform="matrix(1.0826 0 0 1 219.7402 62.2456)" class="st5 st6"> </text>
		</g>
		<g class="st4">
			<text transform="matrix(1.0826 0 0 1 227.7676 62.2456)" class="st5 st6"> </text>
		</g>
		<g class="st4">
			<text transform="matrix(1.0826 0 0 1 235.7944 62.2456)" class="st5 st6"> </text>
		</g>
		<g class="st4">
			<text transform="matrix(1.0826 0 0 1 243.8213 62.2456)" class="st5 st6"> </text>
		</g>
		<g class="st4">
			<text transform="matrix(1.0826 0 0 1 251.8486 62.2456)" class="st5 st6"> </text>
		</g>
		<g class="st4">
			<text transform="matrix(1.0826 0 0 1 259.8755 62.2456)" class="st7 st6">f</text>
		</g>
		<g class="st4">
			<text transform="matrix(1.0826 0 0 1 274.5918 62.2456)" class="st5 st6">(</text>
		</g>
		<g class="st4">
			<text transform="matrix(1.0826 0 0 1 287.3013 62.2456)" class="st7 st6">x</text>
		</g>
		<g class="st4">
			<text transform="matrix(1.0826 0 0 1 300.6797 62.2456)" class="st5 st6">,</text>
		</g>
		<g class="st4">
			<text transform="matrix(1.0826 0 0 1 312.4692 62.2456)" class="st7 st6">u</text>
		</g>
		<g class="st4">
			<text transform="matrix(1.0826 0 0 1 329.0249 62.2456)" class="st5 st6">)</text>
		</g>
		<g class="st4">
			<text transform="matrix(1.0826 0 0 1 164.4712 118.7808)" class="st5 st6">s</text>
		</g>
		<g class="st4">
			<text transform="matrix(1.0826 0 0 1 176.9297 118.7808)" class="st5 st6">.</text>
		</g>
		<g class="st4">
			<text transform="matrix(1.0826 0 0 1 184.9565 118.7808)" class="st5 st6"> </text>
		</g>
		<g class="st4">
			<text transform="matrix(1.0826 0 0 1 192.9839 118.7808)" class="st5 st6">t</text>
		</g>
		<g class="st4">
			<text transform="matrix(1.0826 0 0 1 201.8467 118.7808)" class="st5 st6">.</text>
		</g>
		<g class="st4">
			<text transform="matrix(1.0826 0 0 1 209.874 118.7808)" class="st5 st6"> </text>
		</g>
		<g class="st4">
			<text transform="matrix(1.0826 0 0 1 217.9009 118.7808)" class="st5 st6"> </text>
		</g>
		<g class="st4">
			<text transform="matrix(1.0826 0 0 1 225.9277 118.7808)" class="st5 st6"> </text>
		</g>
		<g class="st4">
			<text transform="matrix(1.0826 0 0 1 233.9551 118.7808)" class="st5 st6"> </text>
		</g>
		<g class="st4">
			<text transform="matrix(1.0826 0 0 1 241.9819 118.7808)" class="st5 st6"> </text>
		</g>
		<g class="st4">
			<text transform="matrix(1.0826 0 0 1 250.0088 118.7808)" class="st5 st6"> </text>
		</g>
		<g class="st4">
			<text transform="matrix(1.0826 0 0 1 258.0361 118.7808)" class="st5 st6">p</text>
		</g>
		<g class="st4">
			<text transform="matrix(1.0826 0 0 1 274.0903 118.7808)" class="st5 st6">o</text>
		</g>
		<g class="st4">
			<text transform="matrix(1.0826 0 0 1 290.144 118.7808)" class="st5 st6">w</text>
		</g>
		<g class="st4">
			<text transform="matrix(1.0826 0 0 1 313.0547 118.7808)" class="st5 st6">e</text>
		</g>
		<g class="st4">
			<text transform="matrix(1.0826 0 0 1 327.1021 118.7808)" class="st5 st6">r</text>
		</g>
		<g class="st4">
			<text transform="matrix(1.0826 0 0 1 337.5537 118.7808)" class="st5 st6"> </text>
		</g>
		<g class="st4">
			<text transform="matrix(1.0826 0 0 1 345.5811 118.7808)" class="st5 st6"> </text>
		</g>
		<g class="st4">
			<text transform="matrix(1.0826 0 0 1 353.6079 118.7808)" class="st5 st6">f</text>
		</g>
		<g class="st4">
			<text transform="matrix(1.0826 0 0 1 364.0596 118.7808)" class="st5 st6">l</text>
		</g>
		<g class="st4">
			<text transform="matrix(1.0826 0 0 1 372.9229 118.7808)" class="st5 st6">o</text>
		</g>
		<g class="st4">
			<text transform="matrix(1.0826 0 0 1 388.9766 118.7808)" class="st5 st6">w</text>
		</g>
		<g class="st4">
			<text transform="matrix(1.0826 0 0 1 411.8877 118.7808)" class="st5 st6"> </text>
		</g>
		<g class="st4">
			<text transform="matrix(1.0826 0 0 1 419.9141 118.7808)" class="st5 st6"> </text>
		</g>
		<g class="st4">
			<text transform="matrix(1.0826 0 0 1 427.9414 118.7808)" class="st5 st6">e</text>
		</g>
		<g class="st4">
			<text transform="matrix(1.0826 0 0 1 441.9883 118.7808)" class="st5 st6">q</text>
		</g>
		<g class="st4">
			<text transform="matrix(1.0826 0 0 1 458.043 118.7808)" class="st5 st6">u</text>
		</g>
		<g class="st4">
			<text transform="matrix(1.0826 0 0 1 474.0967 118.7808)" class="st5 st6">a</text>
		</g>
		<g class="st4">
			<text transform="matrix(1.0826 0 0 1 488.1445 118.7808)" class="st5 st6">t</text>
		</g>
		<g class="st4">
			<text transform="matrix(1.0826 0 0 1 497.0078 118.7808)" class="st5 st6">i</text>
		</g>
		<g class="st4">
			<text transform="matrix(1.0826 0 0 1 505.8701 118.7808)" class="st5 st6">o</text>
		</g>
		<g class="st4">
			<text transform="matrix(1.0826 0 0 1 521.9248 118.7808)" class="st5 st6">n</text>
		</g>
		<g class="st4">
			<text transform="matrix(1.0826 0 0 1 537.9785 118.7808)" class="st5 st6">s</text>
		</g>
		<g class="st4">
			<text transform="matrix(1.0826 0 0 1 165.9761 163.2676)" class="st5 st6"> </text>
		</g>
		<g class="st4">
			<text transform="matrix(1.0826 0 0 1 174.0029 163.2676)" class="st5 st6"> </text>
		</g>
		<g class="st4">
			<text transform="matrix(1.0826 0 0 1 182.0303 163.2676)" class="st5 st6"> </text>
		</g>
		<g class="st4">
			<text transform="matrix(1.0826 0 0 1 190.0571 163.2676)" class="st5 st6"> </text>
		</g>
		<g class="st4">
			<text transform="matrix(1.0826 0 0 1 198.084 163.2676)" class="st5 st6"> </text>
		</g>
		<g class="st4">
			<text transform="matrix(1.0826 0 0 1 206.1113 163.2676)" class="st5 st6"> </text>
		</g>
		<g class="st4">
			<text transform="matrix(1.0826 0 0 1 214.1382 163.2676)" class="st5 st6"> </text>
		</g>
		<g class="st4">
			<text transform="matrix(1.0826 0 0 1 222.165 163.2676)" class="st5 st6"> </text>
		</g>
		<g class="st4">
			<text transform="matrix(1.0826 0 0 1 230.1924 163.2676)" class="st5 st6"> </text>
		</g>
		<g class="st4">
			<text transform="matrix(1.0826 0 0 1 238.2192 163.2676)" class="st5 st6"> </text>
		</g>
		<g class="st4">
			<text transform="matrix(1.0826 0 0 1 246.2466 163.2676)" class="st5 st6"> </text>
		</g>
		<g class="st4">
			<text transform="matrix(1.0826 0 0 1 254.2734 163.2676)" class="st5 st6">o</text>
		</g>
		<g class="st4">
			<text transform="matrix(1.0826 0 0 1 270.3276 163.2676)" class="st5 st6">p</text>
		</g>
		<g class="st4">
			<text transform="matrix(1.0826 0 0 1 286.3813 163.2676)" class="st5 st6">e</text>
		</g>
		<g class="st4">
			<text transform="matrix(1.0826 0 0 1 300.4287 163.2676)" class="st5 st6">r</text>
		</g>
		<g class="st4">
			<text transform="matrix(1.0826 0 0 1 310.8809 163.2676)" class="st5 st6">a</text>
		</g>
		<g class="st4">
			<text transform="matrix(1.0826 0 0 1 324.9277 163.2676)" class="st5 st6">t</text>
		</g>
		<g class="st4">
			<text transform="matrix(1.0826 0 0 1 333.791 163.2676)" class="st5 st6">i</text>
		</g>
		<g class="st4">
			<text transform="matrix(1.0826 0 0 1 342.6543 163.2676)" class="st5 st6">o</text>
		</g>
		<g class="st4">
			<text transform="matrix(1.0826 0 0 1 358.7085 163.2676)" class="st5 st6">n</text>
		</g>
		<g class="st4">
			<text transform="matrix(1.0826 0 0 1 374.7627 163.2676)" class="st5 st6">a</text>
		</g>
		<g class="st4">
			<text transform="matrix(1.0826 0 0 1 388.8096 163.2676)" class="st5 st6">l</text>
		</g>
		<g class="st4">
			<text transform="matrix(1.0826 0 0 1 397.6729 163.2676)" class="st5 st6"> </text>
		</g>
		<g class="st4">
			<text transform="matrix(1.0826 0 0 1 405.7002 163.2676)" class="st5 st6">c</text>
		</g>
		<g class="st4">
			<text transform="matrix(1.0826 0 0 1 419.7471 163.2676)" class="st5 st6">o</text>
		</g>
		<g class="st4">
			<text transform="matrix(1.0826 0 0 1 435.8008 163.2676)" class="st5 st6">n</text>
		</g>
		<g class="st4">
			<text transform="matrix(1.0826 0 0 1 451.8555 163.2676)" class="st5 st6">s</text>
		</g>
		<g class="st4">
			<text transform="matrix(1.0826 0 0 1 464.3145 163.2676)" class="st5 st6">t</text>
		</g>
		<g class="st4">
			<text transform="matrix(1.0826 0 0 1 473.1768 163.2676)" class="st5 st6">r</text>
		</g>
		<g class="st4">
			<text transform="matrix(1.0826 0 0 1 483.6289 163.2676)" class="st5 st6">a</text>
		</g>
		<g class="st4">
			<text transform="matrix(1.0826 0 0 1 497.6758 163.2676)" class="st5 st6">i</text>
		</g>
		<g class="st4">
			<text transform="matrix(1.0826 0 0 1 506.5391 163.2676)" class="st5 st6">n</text>
		</g>
		<g class="st4">
			<text transform="matrix(1.0826 0 0 1 522.5938 163.2676)" class="st5 st6">t</text>
		</g>
		<g class="st4">
			<text transform="matrix(1.0826 0 0 1 531.457 163.2676)" class="st5 st6">s</text>
		</g>
	</g>
</g>
<g>
	<defs>
		<rect id="SVGID_7_" width="720" height="540"/>
	</defs>
	<clipPath id="SVGID_8_">
		<use xlink:href="#SVGID_7_"  style="overflow:visible;"/>
	</clipPath>
	<rect x="159.5" y="33.6" class="st9" width="398.2" height="143.1"/>
</g>
<g>
	<defs>
		<rect id="SVGID_9_" x="162.5" y="270.8" width="390" height="54"/>
	</defs>
	<clipPath id="SVGID_10_">
		<use xlink:href="#SVGID_9_"  style="overflow:visible;"/>
	</clipPath>
	<g class="st10">
		<defs>
			<rect id="SVGID_11_" x="162.5" y="270.8" width="390" height="54"/>
		</defs>
		<clipPath id="SVGID_12_">
			<use xlink:href="#SVGID_11_"  style="overflow:visible;"/>
		</clipPath>
		<g class="st11">
			<text transform="matrix(1.07 0 0 1 169.1577 307.875)" class="st5 st12">p</text>
		</g>
		<g class="st11">
			<text transform="matrix(1.07 0 0 1 190.8247 307.875)" class="st5 st12">o</text>
		</g>
		<g class="st11">
			<text transform="matrix(1.07 0 0 1 212.4912 307.875)" class="st5 st12">w</text>
		</g>
		<g class="st11">
			<text transform="matrix(1.07 0 0 1 243.4111 307.875)" class="st5 st12">e</text>
		</g>
		<g class="st11">
			<text transform="matrix(1.07 0 0 1 262.3696 307.875)" class="st5 st12">r</text>
		</g>
		<g class="st11">
			<text transform="matrix(1.07 0 0 1 276.4756 307.875)" class="st5 st12"> </text>
		</g>
		<g class="st11">
			<text transform="matrix(1.07 0 0 1 287.3091 307.875)" class="st5 st12">n</text>
		</g>
		<g class="st11">
			<text transform="matrix(1.07 0 0 1 308.9756 307.875)" class="st5 st12">e</text>
		</g>
		<g class="st11">
			<text transform="matrix(1.07 0 0 1 327.9336 307.875)" class="st5 st12">t</text>
		</g>
		<g class="st11">
			<text transform="matrix(1.07 0 0 1 339.8955 307.875)" class="st5 st12">w</text>
		</g>
		<g class="st11">
			<text transform="matrix(1.07 0 0 1 370.8154 307.875)" class="st5 st12">o</text>
		</g>
		<g class="st11">
			<text transform="matrix(1.07 0 0 1 392.4824 307.875)" class="st5 st12">r</text>
		</g>
		<g class="st11">
			<text transform="matrix(1.07 0 0 1 406.5879 307.875)" class="st5 st12">k</text>
		</g>
		<g class="st11">
			<text transform="matrix(1.07 0 0 1 428.2549 307.875)" class="st5 st12"> </text>
		</g>
		<g class="st11">
			<text transform="matrix(1.07 0 0 1 439.0879 307.875)" class="st5 st12">m</text>
		</g>
		<g class="st11">
			<text transform="matrix(1.07 0 0 1 472.7168 307.875)" class="st5 st12">o</text>
		</g>
		<g class="st11">
			<text transform="matrix(1.07 0 0 1 494.3838 307.875)" class="st5 st12">d</text>
		</g>
		<g class="st11">
			<text transform="matrix(1.07 0 0 1 516.0498 307.875)" class="st5 st12">e</text>
		</g>
		<g class="st11">
			<text transform="matrix(1.07 0 0 1 535.0088 307.875)" class="st5 st12">l</text>
		</g>
	</g>
</g>
<g>
	<defs>
		<rect id="SVGID_13_" width="720" height="540"/>
	</defs>
	<clipPath id="SVGID_14_">
		<use xlink:href="#SVGID_13_"  style="overflow:visible;"/>
	</clipPath>
	<rect x="161" y="269.3" class="st13" width="393" height="57"/>
</g>
<g>
	<defs>
		<rect id="SVGID_15_" x="78" y="456" width="563.4" height="54"/>
	</defs>
	<clipPath id="SVGID_16_">
		<use xlink:href="#SVGID_15_"  style="overflow:visible;"/>
	</clipPath>
	<g class="st14">
		<defs>
			<rect id="SVGID_17_" x="78" y="456" width="563.4" height="54"/>
		</defs>
		<clipPath id="SVGID_18_">
			<use xlink:href="#SVGID_17_"  style="overflow:visible;"/>
		</clipPath>
		<g class="st15">
			<text transform="matrix(1.07 0 0 1 84.3203 493.125)" class="st5 st12">r</text>
		</g>
		<g class="st15">
			<text transform="matrix(1.07 0 0 1 98.4272 493.125)" class="st5 st12">e</text>
		</g>
		<g class="st15">
			<text transform="matrix(1.07 0 0 1 117.3867 493.125)" class="st5 st12">a</text>
		</g>
		<g class="st15">
			<text transform="matrix(1.07 0 0 1 136.3467 493.125)" class="st5 st12">l</text>
		</g>
		<g class="st15">
			<text transform="matrix(1.07 0 0 1 148.3091 493.125)" class="st5 st12">-</text>
		</g>
		<g class="st15">
			<text transform="matrix(1.07 0 0 1 162.416 493.125)" class="st5 st12">t</text>
		</g>
		<g class="st15">
			<text transform="matrix(1.07 0 0 1 174.3789 493.125)" class="st5 st12">i</text>
		</g>
		<g class="st15">
			<text transform="matrix(1.07 0 0 1 186.3418 493.125)" class="st5 st12">m</text>
		</g>
		<g class="st15">
			<text transform="matrix(1.07 0 0 1 219.9727 493.125)" class="st5 st12">e</text>
		</g>
		<g class="st15">
			<text transform="matrix(1.07 0 0 1 238.9321 493.125)" class="st5 st12"> </text>
		</g>
		<g class="st15">
			<text transform="matrix(1.07 0 0 1 249.7666 493.125)" class="st5 st12">f</text>
		</g>
		<g class="st15">
			<text transform="matrix(1.07 0 0 1 263.873 493.125)" class="st5 st12">e</text>
		</g>
		<g class="st15">
			<text transform="matrix(1.07 0 0 1 282.833 493.125)" class="st5 st12">e</text>
		</g>
		<g class="st15">
			<text transform="matrix(1.07 0 0 1 301.793 493.125)" class="st5 st12">d</text>
		</g>
		<g class="st15">
			<text transform="matrix(1.07 0 0 1 323.4609 493.125)" class="st5 st12">b</text>
		</g>
		<g class="st15">
			<text transform="matrix(1.07 0 0 1 345.1294 493.125)" class="st5 st12">a</text>
		</g>
		<g class="st15">
			<text transform="matrix(1.07 0 0 1 364.0889 493.125)" class="st5 st12">c</text>
		</g>
		<g class="st15">
			<text transform="matrix(1.07 0 0 1 383.0488 493.125)" class="st5 st12">k</text>
		</g>
		<g class="st15">
			<text transform="matrix(1.07 0 0 1 404.7168 493.125)" class="st5 st12"> </text>
		</g>
		<g class="st15">
			<text transform="matrix(1.07 0 0 1 415.5508 493.125)" class="st5 st12">o</text>
		</g>
		<g class="st15">
			<text transform="matrix(1.07 0 0 1 437.2197 493.125)" class="st5 st12">p</text>
		</g>
		<g class="st15">
			<text transform="matrix(1.07 0 0 1 458.8877 493.125)" class="st5 st12">t</text>
		</g>
		<g class="st15">
			<text transform="matrix(1.07 0 0 1 470.8506 493.125)" class="st5 st12">i</text>
		</g>
		<g class="st15">
			<text transform="matrix(1.07 0 0 1 482.8135 493.125)" class="st5 st12">m</text>
		</g>
		<g class="st15">
			<text transform="matrix(1.07 0 0 1 516.4443 493.125)" class="st5 st12">i</text>
		</g>
		<g class="st15">
			<text transform="matrix(1.07 0 0 1 528.4072 493.125)" class="st5 st12">z</text>
		</g>
		<g class="st15">
			<text transform="matrix(1.07 0 0 1 547.3662 493.125)" class="st5 st12">a</text>
		</g>
		<g class="st15">
			<text transform="matrix(1.07 0 0 1 566.3262 493.125)" class="st5 st12">t</text>
		</g>
		<g class="st15">
			<text transform="matrix(1.07 0 0 1 578.2891 493.125)" class="st5 st12">i</text>
		</g>
		<g class="st15">
			<text transform="matrix(1.07 0 0 1 590.252 493.125)" class="st5 st12">o</text>
		</g>
		<g class="st15">
			<text transform="matrix(1.07 0 0 1 611.9199 493.125)" class="st5 st12">n</text>
		</g>
	</g>
</g>
<g>
	<defs>
		<rect id="SVGID_19_" width="720" height="540"/>
	</defs>
	<clipPath id="SVGID_20_">
		<use xlink:href="#SVGID_19_"  style="overflow:visible;"/>
	</clipPath>
	<rect x="76.5" y="454.5" class="st16" width="566.4" height="57"/>
	<line class="st16" x1="304.6" y1="324.8" x2="304.6" y2="453.7"/>
	<polygon class="st17" points="309.1,447.8 304.6,456.8 300.1,447.8 	"/>
	<line class="st16" x1="394.6" y1="327.8" x2="394.6" y2="450.7"/>
	<polygon class="st17" points="390.1,333.8 394.6,324.8 399.1,333.8 	"/>
</g>
<g>
	<defs>
		<rect id="SVGID_21_" x="400.6" y="372" width="163.1" height="39.5"/>
	</defs>
	<clipPath id="SVGID_22_">
		<use xlink:href="#SVGID_21_"  style="overflow:visible;"/>
	</clipPath>
	<g class="st18">
		<defs>
			<rect id="SVGID_23_" x="400.6" y="372" width="163.1" height="39.5"/>
		</defs>
		<clipPath id="SVGID_24_">
			<use xlink:href="#SVGID_23_"  style="overflow:visible;"/>
		</clipPath>
		<g class="st19">
			<text transform="matrix(1.0832 0 0 1 405.1377 399.1562)" class="st5 st20">c</text>
		</g>
		<g class="st19">
			<text transform="matrix(1.0832 0 0 1 419.1768 399.1562)" class="st5 st20">o</text>
		</g>
		<g class="st19">
			<text transform="matrix(1.0832 0 0 1 435.2217 399.1562)" class="st5 st20">n</text>
		</g>
		<g class="st19">
			<text transform="matrix(1.0832 0 0 1 451.2676 399.1562)" class="st5 st20">t</text>
		</g>
		<g class="st19">
			<text transform="matrix(1.0832 0 0 1 460.125 399.1562)" class="st5 st20">r</text>
		</g>
		<g class="st19">
			<text transform="matrix(1.0832 0 0 1 470.5713 399.1562)" class="st5 st20">o</text>
		</g>
		<g class="st19">
			<text transform="matrix(1.0832 0 0 1 486.6162 399.1562)" class="st5 st20">l</text>
		</g>
		<g class="st19">
			<text transform="matrix(1.0832 0 0 1 495.4746 399.1562)" class="st5 st20"> </text>
		</g>
		<g class="st19">
			<text transform="matrix(1.0832 0 0 1 503.4971 399.1562)" class="st5 st20"> </text>
		</g>
		<g class="st19">
			<text transform="matrix(1.0832 0 0 1 511.5195 399.1562)" class="st7 st20">u</text>
		</g>
		<g class="st19">
			<text transform="matrix(1.0832 0 0 1 527.5645 399.1562)" class="st5 st20">(</text>
		</g>
		<g class="st19">
			<text transform="matrix(1.0832 0 0 1 538.3447 399.1562)" class="st7 st20">t</text>
		</g>
		<g class="st19">
			<text transform="matrix(1.0832 0 0 1 549.376 399.1562)" class="st5 st20">)</text>
		</g>
	</g>
</g>
<g>
	<defs>
		<rect id="SVGID_25_" x="167.5" y="372" width="131.1" height="39.5"/>
	</defs>
	<clipPath id="SVGID_26_">
		<use xlink:href="#SVGID_25_"  style="overflow:visible;"/>
	</clipPath>
	<g class="st21">
		<defs>
			<rect id="SVGID_27_" x="167.5" y="372" width="131.1" height="39.5"/>
		</defs>
		<clipPath id="SVGID_28_">
			<use xlink:href="#SVGID_27_"  style="overflow:visible;"/>
		</clipPath>
		<g class="st22">
			<text transform="matrix(1.084 0 0 1 171.3467 399.1562)" class="st5 st20">s</text>
		</g>
		<g class="st22">
			<text transform="matrix(1.084 0 0 1 183.8066 399.1562)" class="st5 st20">t</text>
		</g>
		<g class="st22">
			<text transform="matrix(1.084 0 0 1 192.6709 399.1562)" class="st5 st20">a</text>
		</g>
		<g class="st22">
			<text transform="matrix(1.084 0 0 1 206.7202 399.1562)" class="st5 st20">t</text>
		</g>
		<g class="st22">
			<text transform="matrix(1.084 0 0 1 215.5845 399.1562)" class="st5 st20">e</text>
		</g>
		<g class="st22">
			<text transform="matrix(1.084 0 0 1 229.6338 399.1562)" class="st5 st20"> </text>
		</g>
		<g class="st22">
			<text transform="matrix(1.084 0 0 1 237.6616 399.1562)" class="st5 st20"> </text>
		</g>
		<g class="st22">
			<text transform="matrix(1.084 0 0 1 245.6895 399.1562)" class="st7 st20">x</text>
		</g>
		<g class="st22">
			<text transform="matrix(1.084 0 0 1 261.0767 399.1562)" class="st5 st20">(</text>
		</g>
		<g class="st22">
			<text transform="matrix(1.084 0 0 1 271.8643 399.1562)" class="st7 st20">t</text>
		</g>
		<g class="st22">
			<text transform="matrix(1.084 0 0 1 282.9033 399.1562)" class="st5 st20">)</text>
		</g>
	</g>
</g>
</svg>
