<?xml version="1.0" encoding="utf-8"?>
<!-- Generator: Adobe Illustrator 22.0.1, SVG Export Plug-In . SVG Version: 6.00 Build 0)  -->
<svg version="1.1" id="Layer_1" xmlns="http://www.w3.org/2000/svg" xmlns:xlink="http://www.w3.org/1999/xlink" x="0px" y="0px"
	 viewBox="0 0 720 540" style="enable-background:new 0 0 720 540;" xml:space="preserve">
<style type="text/css">
	.st0{display:none;}
	.st1{display:inline;}
	.st2{display:inline;clip-path:url(#SVGID_2_);fill-rule:evenodd;clip-rule:evenodd;fill:#FFFFFF;}
	.st3{clip-path:url(#SVGID_4_);}
	.st4{clip-path:url(#SVGID_6_);}
	.st5{font-family:'Times-Roman';}
	.st6{font-size:30.7273px;}
	.st7{font-family:'Times-Italic';}
	.st8{clip-path:url(#SVGID_8_);fill:none;stroke:#0433FF;stroke-width:3;stroke-linejoin:round;stroke-miterlimit:10;}
	.st9{clip-path:url(#SVGID_10_);}
	.st10{clip-path:url(#SVGID_12_);}
	.st11{font-size:30.7727px;}
	.st12{clip-path:url(#SVGID_14_);fill:none;stroke:#0433FF;stroke-width:3;stroke-linejoin:round;stroke-miterlimit:10;}
	.st13{clip-path:url(#SVGID_14_);fill-rule:evenodd;clip-rule:evenodd;fill:#0433FF;}
	.st14{clip-path:url(#SVGID_14_);}
	.st15{font-family:'ArialMT';}
	.st16{font-size:24px;}
	.st17{font-family:'TimesNewRomanPS-ItalicMT';}
	.st18{font-size:28px;}
	.st19{fill:#0000FF;}
	.st20{font-size:20px;}
</style>
<g class="st0">
	<defs>
		<rect id="SVGID_1_" width="720" height="540"/>
	</defs>
	<clipPath id="SVGID_2_" class="st1">
		<use xlink:href="#SVGID_1_"  style="overflow:visible;"/>
	</clipPath>
	<rect y="0" class="st2" width="720" height="540"/>
</g>
<g>
	<defs>
		<rect id="SVGID_3_" x="105.9" y="88.1" width="405.2" height="84.5"/>
	</defs>
	<clipPath id="SVGID_4_">
		<use xlink:href="#SVGID_3_"  style="overflow:visible;"/>
	</clipPath>
	<g class="st3">
		<defs>
			<rect id="SVGID_5_" x="105.9" y="88.1" width="405.2" height="84.5"/>
		</defs>
		<clipPath id="SVGID_6_">
			<use xlink:href="#SVGID_5_"  style="overflow:visible;"/>
		</clipPath>
		<g class="st4">
			<text transform="matrix(1.0693 0 0 1 110.2393 114.3711)" class="st5 st6">G</text>
		</g>
		<g class="st4">
			<text transform="matrix(1.0693 0 0 1 133.6846 114.3711)" class="st5 st6">r</text>
		</g>
		<g class="st4">
			<text transform="matrix(1.0693 0 0 1 144.3809 114.3711)" class="st5 st6">i</text>
		</g>
		<g class="st4">
			<text transform="matrix(1.0693 0 0 1 153.4512 114.3711)" class="st5 st6">d</text>
		</g>
		<g class="st4">
			<text transform="matrix(1.0693 0 0 1 169.8799 114.3711)" class="st5 st6">:</text>
		</g>
		<g class="st4">
			<text transform="matrix(1.0693 0 0 1 175.7842 114.3711)" class="st5 st6"> </text>
		</g>
		<g class="st4">
			<text transform="matrix(1.0693 0 0 1 183.999 114.3711)" class="st5 st6"> </text>
		</g>
		<g class="st4">
			<text transform="matrix(1.0693 0 0 1 192.2134 114.3711)" class="st5 st6">p</text>
		</g>
		<g class="st4">
			<text transform="matrix(1.0693 0 0 1 208.6426 114.3711)" class="st5 st6">o</text>
		</g>
		<g class="st4">
			<text transform="matrix(1.0693 0 0 1 225.0713 114.3711)" class="st5 st6">w</text>
		</g>
		<g class="st4">
			<text transform="matrix(1.0693 0 0 1 248.5171 114.3711)" class="st5 st6">e</text>
		</g>
		<g class="st4">
			<text transform="matrix(1.0693 0 0 1 262.8926 114.3711)" class="st5 st6">r</text>
		</g>
		<g class="st4">
			<text transform="matrix(1.0693 0 0 1 273.5884 114.3711)" class="st5 st6"> </text>
		</g>
		<g class="st4">
			<text transform="matrix(1.0693 0 0 1 281.8032 114.3711)" class="st5 st6">s</text>
		</g>
		<g class="st4">
			<text transform="matrix(1.0693 0 0 1 294.5527 114.3711)" class="st5 st6">y</text>
		</g>
		<g class="st4">
			<text transform="matrix(1.0693 0 0 1 310.9814 114.3711)" class="st5 st6">s</text>
		</g>
		<g class="st4">
			<text transform="matrix(1.0693 0 0 1 323.7314 114.3711)" class="st5 st6">t</text>
		</g>
		<g class="st4">
			<text transform="matrix(1.0693 0 0 1 332.8018 114.3711)" class="st5 st6">e</text>
		</g>
		<g class="st4">
			<text transform="matrix(1.0693 0 0 1 347.1768 114.3711)" class="st5 st6">m</text>
		</g>
		<g class="st4">
			<text transform="matrix(1.0693 0 0 1 372.6758 114.3711)" class="st5 st6"> </text>
		</g>
		<g class="st4">
			<text transform="matrix(1.0693 0 0 1 380.8906 114.3711)" class="st5 st6">d</text>
		</g>
		<g class="st4">
			<text transform="matrix(1.0693 0 0 1 397.3203 114.3711)" class="st5 st6">y</text>
		</g>
		<g class="st4">
			<text transform="matrix(1.0693 0 0 1 413.749 114.3711)" class="st5 st6">n</text>
		</g>
		<g class="st4">
			<text transform="matrix(1.0693 0 0 1 430.1777 114.3711)" class="st5 st6">a</text>
		</g>
		<g class="st4">
			<text transform="matrix(1.0693 0 0 1 444.5537 114.3711)" class="st5 st6">m</text>
		</g>
		<g class="st4">
			<text transform="matrix(1.0693 0 0 1 470.0527 114.3711)" class="st5 st6">i</text>
		</g>
		<g class="st4">
			<text transform="matrix(1.0693 0 0 1 479.123 114.3711)" class="st5 st6">c</text>
		</g>
		<g class="st4">
			<text transform="matrix(1.0693 0 0 1 493.498 114.3711)" class="st5 st6">s</text>
		</g>
		<g class="st4">
			<text transform="matrix(1.0693 0 0 1 111.3516 160.4619)" class="st5 st6"> </text>
		</g>
		<g class="st4">
			<text transform="matrix(1.0693 0 0 1 119.5659 160.4619)" class="st5 st6"> </text>
		</g>
		<g class="st4">
			<text transform="matrix(1.0693 0 0 1 127.7808 160.4619)" class="st5 st6"> </text>
		</g>
		<g class="st4">
			<text transform="matrix(1.0693 0 0 1 135.9951 160.4619)" class="st5 st6"> </text>
		</g>
		<g class="st4">
			<text transform="matrix(1.0693 0 0 1 144.21 160.4619)" class="st5 st6"> </text>
		</g>
		<g class="st4">
			<text transform="matrix(1.0693 0 0 1 152.4243 160.4619)" class="st5 st6"> </text>
		</g>
		<g class="st4">
			<text transform="matrix(1.0693 0 0 1 160.6387 160.4619)" class="st7 st6">x</text>
		</g>
		<g class="st4">
			<text transform="matrix(1.0693 0 0 1 176.3833 160.4619)" class="st5 st6">(</text>
		</g>
		<g class="st4">
			<text transform="matrix(1.0693 0 0 1 187.4214 160.4619)" class="st7 st6">t</text>
		</g>
		<g class="st4">
			<text transform="matrix(1.0693 0 0 1 198.7163 160.4619)" class="st5 st6">)</text>
		</g>
		<g class="st4">
			<text transform="matrix(1.0693 0 0 1 210.3535 160.4619)" class="st5 st6"> </text>
		</g>
		<g class="st4">
			<text transform="matrix(1.0693 0 0 1 218.5684 160.4619)" class="st5 st6">:</text>
		</g>
		<g class="st4">
			<text transform="matrix(1.0693 0 0 1 227.6387 160.4619)" class="st5 st6"> </text>
		</g>
		<g class="st4">
			<text transform="matrix(1.0693 0 0 1 235.853 160.4619)" class="st7 st6">F</text>
		</g>
		<g class="st4">
			<text transform="matrix(1.0693 0 0 1 258.0151 160.4619)" class="st5 st6">(</text>
		</g>
		<g class="st4">
			<text transform="matrix(1.0693 0 0 1 271.0215 160.4619)" class="st7 st6">x</text>
		</g>
		<g class="st4">
			<text transform="matrix(1.0693 0 0 1 286.7661 160.4619)" class="st5 st6">(</text>
		</g>
		<g class="st4">
			<text transform="matrix(1.0693 0 0 1 297.8042 160.4619)" class="st7 st6">t</text>
		</g>
		<g class="st4">
			<text transform="matrix(1.0693 0 0 1 309.0991 160.4619)" class="st5 st6">)</text>
		</g>
		<g class="st4">
			<text transform="matrix(1.0693 0 0 1 319.7954 160.4619)" class="st5 st6">,</text>
		</g>
		<g class="st4">
			<text transform="matrix(1.0693 0 0 1 332.9727 160.4619)" class="st5 st6"> </text>
		</g>
		<g class="st4">
			<text transform="matrix(1.0693 0 0 1 341.187 160.4619)" class="st7 st6">u</text>
		</g>
		<g class="st4">
			<text transform="matrix(1.0693 0 0 1 357.6162 160.4619)" class="st5 st6">(</text>
		</g>
		<g class="st4">
			<text transform="matrix(1.0693 0 0 1 368.6543 160.4619)" class="st7 st6">t</text>
		</g>
		<g class="st4">
			<text transform="matrix(1.0693 0 0 1 379.9492 160.4619)" class="st5 st6">)</text>
		</g>
		<g class="st4">
			<text transform="matrix(1.0693 0 0 1 390.6455 160.4619)" class="st5 st6">)</text>
		</g>
		<g class="st4">
			<text transform="matrix(1.0693 0 0 1 402.2832 160.4619)" class="st5 st6"> </text>
		</g>
		<g class="st4">
			<text transform="matrix(1.0693 0 0 1 410.4971 160.4619)" class="st5 st6">=</text>
		</g>
		<g class="st4">
			<text transform="matrix(1.0693 0 0 1 428.9805 160.4619)" class="st5 st6"> </text>
		</g>
		<g class="st4">
			<text transform="matrix(1.0693 0 0 1 439.0771 160.4619)" class="st5 st6">0</text>
		</g>
	</g>
</g>
<g>
	<defs>
		<rect id="SVGID_7_" width="720" height="540"/>
	</defs>
	<clipPath id="SVGID_8_">
		<use xlink:href="#SVGID_7_"  style="overflow:visible;"/>
	</clipPath>
	<rect x="104.4" y="86.6" class="st8" width="408.2" height="87.5"/>
</g>
<g>
	<defs>
		<rect id="SVGID_9_" x="109.4" y="370.1" width="416.1" height="84.6"/>
	</defs>
	<clipPath id="SVGID_10_">
		<use xlink:href="#SVGID_9_"  style="overflow:visible;"/>
	</clipPath>
	<g class="st9">
		<defs>
			<rect id="SVGID_11_" x="109.4" y="370.1" width="416.1" height="84.6"/>
		</defs>
		<clipPath id="SVGID_12_">
			<use xlink:href="#SVGID_11_"  style="overflow:visible;"/>
		</clipPath>
		<g class="st10">
			<text transform="matrix(1.0676 0 0 1 114.4229 396.4102)" class="st5 st11">R</text>
		</g>
		<g class="st10">
			<text transform="matrix(1.0676 0 0 1 136.3237 396.4102)" class="st5 st11">e</text>
		</g>
		<g class="st10">
			<text transform="matrix(1.0676 0 0 1 150.6968 396.4102)" class="st5 st11">a</text>
		</g>
		<g class="st10">
			<text transform="matrix(1.0676 0 0 1 165.0693 396.4102)" class="st5 st11">l</text>
		</g>
		<g class="st10">
			<text transform="matrix(1.0676 0 0 1 174.1377 396.4102)" class="st5 st11">t</text>
		</g>
		<g class="st10">
			<text transform="matrix(1.0676 0 0 1 183.2065 396.4102)" class="st5 st11">i</text>
		</g>
		<g class="st10">
			<text transform="matrix(1.0676 0 0 1 192.2749 396.4102)" class="st5 st11">m</text>
		</g>
		<g class="st10">
			<text transform="matrix(1.0676 0 0 1 217.7695 396.4102)" class="st5 st11">e</text>
		</g>
		<g class="st10">
			<text transform="matrix(1.0676 0 0 1 231.458 396.4102)" class="st5 st11"> </text>
		</g>
		<g class="st10">
			<text transform="matrix(1.0676 0 0 1 239.6709 396.4102)" class="st5 st11">O</text>
		</g>
		<g class="st10">
			<text transform="matrix(1.0676 0 0 1 263.1118 396.4102)" class="st5 st11">P</text>
		</g>
		<g class="st10">
			<text transform="matrix(1.0676 0 0 1 281.3345 396.4102)" class="st5 st11">F</text>
		</g>
		<g class="st10">
			<text transform="matrix(1.0676 0 0 1 299.5571 396.4102)" class="st5 st11">:</text>
		</g>
		<g class="st10">
			<text transform="matrix(1.0676 0 0 1 308.6255 396.4102)" class="st5 st11"> </text>
		</g>
		<g class="st10">
			<text transform="matrix(1.0676 0 0 1 316.8389 396.4102)" class="st5 st11">g</text>
		</g>
		<g class="st10">
			<text transform="matrix(1.0676 0 0 1 333.2646 396.4102)" class="st5 st11">r</text>
		</g>
		<g class="st10">
			<text transform="matrix(1.0676 0 0 1 343.9585 396.4102)" class="st5 st11">a</text>
		</g>
		<g class="st10">
			<text transform="matrix(1.0676 0 0 1 358.3315 396.4102)" class="st5 st11">d</text>
		</g>
		<g class="st10">
			<text transform="matrix(1.0676 0 0 1 374.7578 396.4102)" class="st5 st11">i</text>
		</g>
		<g class="st10">
			<text transform="matrix(1.0676 0 0 1 383.8262 396.4102)" class="st5 st11">e</text>
		</g>
		<g class="st10">
			<text transform="matrix(1.0676 0 0 1 398.1982 396.4102)" class="st5 st11">n</text>
		</g>
		<g class="st10">
			<text transform="matrix(1.0676 0 0 1 414.625 396.4102)" class="st5 st11">t</text>
		</g>
		<g class="st10">
			<text transform="matrix(1.0676 0 0 1 423.6934 396.4102)" class="st5 st11"> </text>
		</g>
		<g class="st10">
			<text transform="matrix(1.0676 0 0 1 431.9062 396.4102)" class="st5 st11">u</text>
		</g>
		<g class="st10">
			<text transform="matrix(1.0676 0 0 1 448.332 396.4102)" class="st5 st11">p</text>
		</g>
		<g class="st10">
			<text transform="matrix(1.0676 0 0 1 464.7578 396.4102)" class="st5 st11">d</text>
		</g>
		<g class="st10">
			<text transform="matrix(1.0676 0 0 1 481.1836 396.4102)" class="st5 st11">a</text>
		</g>
		<g class="st10">
			<text transform="matrix(1.0676 0 0 1 495.5566 396.4102)" class="st5 st11">t</text>
		</g>
		<g class="st10">
			<text transform="matrix(1.0676 0 0 1 504.625 396.4102)" class="st5 st11">e</text>
		</g>
		<g class="st10">
			<text transform="matrix(1.0676 0 0 1 114.8506 442.5693)" class="st5 st11"> </text>
		</g>
		<g class="st10">
			<text transform="matrix(1.0676 0 0 1 123.0635 442.5693)" class="st5 st11"> </text>
		</g>
		<g class="st10">
			<text transform="matrix(1.0676 0 0 1 131.2764 442.5693)" class="st5 st11"> </text>
		</g>
		<g class="st10">
			<text transform="matrix(1.0676 0 0 1 139.4893 442.5693)" class="st5 st11"> </text>
		</g>
		<g class="st10">
			<text transform="matrix(1.0676 0 0 1 147.7021 442.5693)" class="st5 st11"> </text>
		</g>
		<g class="st10">
			<text transform="matrix(1.0676 0 0 1 155.9155 442.5693)" class="st5 st11"> </text>
		</g>
		<g class="st10">
			<text transform="matrix(1.0676 0 0 1 164.1284 442.5693)" class="st5 st11"> </text>
		</g>
		<g class="st10">
			<text transform="matrix(1.0676 0 0 1 172.3413 442.5693)" class="st7 st11">u</text>
		</g>
		<g class="st10">
			<text transform="matrix(1.0676 0 0 1 188.7676 442.5693)" class="st5 st11">(</text>
		</g>
		<g class="st10">
			<text transform="matrix(1.0676 0 0 1 199.8037 442.5693)" class="st7 st11">t</text>
		</g>
		<g class="st10">
			<text transform="matrix(1.0676 0 0 1 211.0962 442.5693)" class="st5 st11">+</text>
		</g>
		<g class="st10">
			<text transform="matrix(1.0676 0 0 1 229.5757 442.5693)" class="st5 st11">1</text>
		</g>
		<g class="st10">
			<text transform="matrix(1.0676 0 0 1 244.2905 442.5693)" class="st5 st11">)</text>
		</g>
		<g class="st10">
			<text transform="matrix(1.0676 0 0 1 255.9258 442.5693)" class="st5 st11"> </text>
		</g>
		<g class="st10">
			<text transform="matrix(1.0676 0 0 1 264.1387 442.5693)" class="st5 st11">=</text>
		</g>
		<g class="st10">
			<text transform="matrix(1.0676 0 0 1 282.6177 442.5693)" class="st5 st11"> </text>
		</g>
		<g class="st10">
			<text transform="matrix(1.0676 0 0 1 290.8311 442.5693)" class="st7 st11">G</text>
		</g>
		<g class="st10">
			<text transform="matrix(1.0676 0 0 1 315.7266 442.5693)" class="st5 st11">(</text>
		</g>
		<g class="st10">
			<text transform="matrix(1.0676 0 0 1 328.7305 442.5693)" class="st7 st11">x</text>
		</g>
		<g class="st10">
			<text transform="matrix(1.0676 0 0 1 344.4722 442.5693)" class="st5 st11">(</text>
		</g>
		<g class="st10">
			<text transform="matrix(1.0676 0 0 1 355.5083 442.5693)" class="st7 st11">t</text>
		</g>
		<g class="st10">
			<text transform="matrix(1.0676 0 0 1 366.8008 442.5693)" class="st5 st11">)</text>
		</g>
		<g class="st10">
			<text transform="matrix(1.0676 0 0 1 377.4951 442.5693)" class="st5 st11">,</text>
		</g>
		<g class="st10">
			<text transform="matrix(1.0676 0 0 1 390.6699 442.5693)" class="st5 st11"> </text>
		</g>
		<g class="st10">
			<text transform="matrix(1.0676 0 0 1 398.8828 442.5693)" class="st7 st11">u</text>
		</g>
		<g class="st10">
			<text transform="matrix(1.0676 0 0 1 415.3086 442.5693)" class="st5 st11">(</text>
		</g>
		<g class="st10">
			<text transform="matrix(1.0676 0 0 1 426.3457 442.5693)" class="st7 st11">t</text>
		</g>
		<g class="st10">
			<text transform="matrix(1.0676 0 0 1 437.6377 442.5693)" class="st5 st11">)</text>
		</g>
		<g class="st10">
			<text transform="matrix(1.0676 0 0 1 448.332 442.5693)" class="st5 st11">)</text>
		</g>
	</g>
</g>
<g>
	<defs>
		<rect id="SVGID_13_" width="720" height="540"/>
	</defs>
	<clipPath id="SVGID_14_">
		<use xlink:href="#SVGID_13_"  style="overflow:visible;"/>
	</clipPath>
	<rect x="107.9" y="368.6" class="st12" width="419.1" height="87.6"/>
	<line class="st12" x1="277.4" y1="176.9" x2="277.4" y2="365.9"/>
	<polygon class="st13" points="281.9,359.9 277.4,368.9 272.9,359.9 	"/>
	<line class="st12" x1="343.4" y1="179.9" x2="343.4" y2="362.9"/>
	<polygon class="st13" points="338.9,185.9 343.4,176.9 347.9,185.9 	"/>
	<g class="st14">
		<text transform="matrix(1 0 0 1 369.6678 258.475)" class="st15 st16">control </text>
	</g>
	<g class="st14">
		<text transform="matrix(1 0 0 1 383.6678 290.475)" class="st17 st18">u(t) </text>
	</g>
	<g class="st14">
		<text transform="matrix(1 0 0 1 113.4305 260.1953)" class="st15 st16">measurement </text>
	</g>
	<g class="st14">
		<text transform="matrix(1 0 0 1 164.4305 292.1953)" class="st17 st18">x(t) </text>
	</g>
	<g class="st14">
		<text transform="matrix(1 0 0 1 554.637 128.475)" class="st19 st15 st20">physical  </text>
	</g>
	<g class="st14">
		<text transform="matrix(1 0 0 1 555.637 152.475)" class="st19 st15 st20">network </text>
	</g>
	<g class="st14">
		<text transform="matrix(1 0 0 1 571.637 408.7359)" class="st19 st15 st20">cyber  </text>
	</g>
	<g class="st14">
		<text transform="matrix(1 0 0 1 560.637 432.7359)" class="st19 st15 st20">network </text>
	</g>
</g>
</svg>
