<?xml version="1.0" encoding="utf-8"?>
<!-- Generator: Adobe Illustrator 22.0.1, SVG Export Plug-In . SVG Version: 6.00 Build 0)  -->
<svg version="1.1" xmlns="http://www.w3.org/2000/svg" xmlns:xlink="http://www.w3.org/1999/xlink" x="0px" y="0px"
	 viewBox="0 0 678 220" style="enable-background:new 0 0 678 220;" xml:space="preserve">
<style type="text/css">
	.st0{fill:#4E6EAF;}
</style>
<g id="Layer_1">
	<polygon class="st0" points="298.9,175.7 20.1,175.7 20.1,115.5 28,115.5 28,167.8 291.1,167.8 291.1,112.4 298.9,112.4 	"/>
	<polygon class="st0" points="283.7,115.7 295,96.1 306.3,115.7 	"/>
	<polygon class="st0" points="28,96.2 20.1,96.2 20.1,37.9 298.9,37.9 298.9,92.7 291.1,92.7 291.1,45.7 28,45.7 	"/>
	<polygon class="st0" points="35.4,92.9 24.1,112.5 12.7,92.9 	"/>
</g>
<g id="Layer_2">
	<g>
		<path d="M281.4,15.5h-32.8c-11,0-18.5,4-22.7,7.8c-4.4,4.1-6.9,7-10.9,15.4c-2,4.3-5.7,15.1-11,32.5h51.2l-2.1,7.3h-51l-16.5,66.6
			h-17.9L185,78.5c0,0,5.8-24.1,11.5-37.3c5.7-13.1,12.5-21,19.6-25.6c8.7-5.7,20.7-6.7,30.2-6.7h37.2L281.4,15.5z"/>
		<path d="M151.2,91.1c-3.2-8.1-13.8-18.2-27.7-19h-36L48.8,206.3h-42L5,212.5h42.2H62h2l19.2-67.3l13,0c17.6,0,31.7-2.2,41.4-11.3
			C149.2,123.2,157.8,107.9,151.2,91.1 M112.8,136.8c-4.3,1.6-11,2.4-14.8,2.4c-7.8,0-13.1,0-13.1,0l4.5-15.1l13.7-45.9
			c0,0,3.4,0.1,11.4,0.1c8,0,14.7,3.2,17.4,6.3c2.7,3.1,5.9,7,5.3,15.4C136.1,117.6,128,129.9,112.8,136.8 M137.3,97.6
			C137.3,97.1,137.3,97,137.3,97.6"/>
		<path d="M336.8,79c1.8-0.1,3.5-0.4,4.9-0.8c1.4-0.4,2.6-1,3.6-1.8c1-0.8,1.7-1.8,2.2-3c0.5-1.2,0.7-2.7,0.7-4.4
			c0-1.5-0.3-2.9-0.8-4.1c-0.5-1.2-1.2-2.2-2.1-3c-0.9-0.8-2-1.4-3.2-1.9c-1.3-0.4-2.6-0.6-4.1-0.6c-1,0-1.8,0.1-2.3,0.2
			c-0.5,0.1-0.8,0.6-0.8,1.3v35.7c0,0.5-0.3,0.9-0.8,1c-0.4,0.1-0.8,0.1-1.3,0.2c-0.5,0.1-0.9,0.1-1.4,0.1c-0.4,0-0.9,0.1-1.2,0.1
			c-0.4,0-0.7,0-0.8,0c-0.5,0-0.8-0.3-0.8-0.9V62.7c0-1.2-0.3-1.9-0.8-2.3c-0.5-0.4-1.2-0.6-2-0.6c-0.5,0-1,0-1.5,0.1L324,58
			c2-0.3,4.2-0.7,6.6-1c2.4-0.3,5-0.4,8-0.4c1.4,0,2.7,0.1,4.1,0.2c1.3,0.1,2.6,0.4,3.9,0.7c1.2,0.3,2.4,0.7,3.4,1.3
			c1.1,0.5,2,1.2,2.8,2c0.8,0.8,1.4,1.8,1.8,2.9c0.4,1.1,0.7,2.5,0.7,4c0,2.4-0.5,4.4-1.5,6c-1,1.6-2.3,3-4,4
			c-1.7,1-3.6,1.8-5.8,2.3c-2.2,0.5-4.4,0.8-6.8,0.9L336.8,79z"/>
		<path d="M382.2,56.6c3,0,5.6,0.5,8,1.4c2.4,0.9,4.4,2.2,6.1,4c1.7,1.7,3,3.9,3.9,6.4c0.9,2.5,1.4,5.4,1.4,8.6
			c0,3.5-0.5,6.6-1.5,9.2c-1,2.7-2.5,4.9-4.3,6.8c-1.9,1.8-4.1,3.2-6.8,4.2c-2.6,0.9-5.6,1.4-8.8,1.4c-3,0-5.6-0.5-8-1.4
			c-2.4-1-4.4-2.3-6.1-4.1c-1.7-1.8-3-3.9-3.9-6.5c-0.9-2.5-1.4-5.4-1.4-8.6c0-3.5,0.5-6.5,1.5-9.2c1-2.7,2.5-4.9,4.3-6.7
			c1.9-1.8,4.1-3.1,6.8-4.1C376,57.1,378.9,56.6,382.2,56.6 M380.5,59.5c-2.2,0-4.2,0.5-5.8,1.4c-1.6,0.9-2.9,2.1-3.9,3.7
			c-1,1.5-1.8,3.3-2.3,5.3c-0.5,2-0.7,4.1-0.7,6.2c0,2.4,0.3,4.8,0.8,7.1c0.5,2.3,1.3,4.4,2.5,6.3c1.1,1.8,2.6,3.3,4.4,4.4
			c1.8,1.1,3.9,1.7,6.5,1.7c2.2,0,4.2-0.5,5.8-1.4c1.6-1,2.9-2.2,3.9-3.8c1-1.6,1.8-3.4,2.3-5.4c0.5-2,0.7-4.1,0.7-6.3
			c0-2.4-0.3-4.8-0.8-7.1c-0.5-2.3-1.3-4.4-2.5-6.1c-1.1-1.8-2.6-3.2-4.4-4.3C385.1,60,383,59.5,380.5,59.5"/>
		<path d="M454.9,58.7c0.2-0.5,0.5-0.9,1.1-1c0.3-0.1,0.7-0.2,1-0.2c0.4,0,0.7-0.1,1-0.1c0.3,0,0.6-0.1,0.9-0.1c0.3,0,0.5,0,0.7,0
			c0.4,0,0.6,0.1,0.6,0.3c0,0.2,0,0.4-0.1,0.7l-14.1,39c-0.1,0.2-0.2,0.4-0.3,0.5c-0.1,0.1-0.2,0.1-0.3,0.2c-0.2,0-0.5,0-0.8,0.1
			c-0.3,0-0.7,0-1,0.1c-0.3,0-0.7,0-1,0.1c-0.3,0-0.6,0-0.8,0c-0.1,0-0.3,0-0.4-0.1c-0.1-0.1-0.2-0.2-0.3-0.4l-8.1-25.1l-8.7,24.8
			c-0.1,0.2-0.2,0.4-0.3,0.5c-0.1,0.1-0.2,0.1-0.3,0.2c-0.2,0-0.5,0-0.8,0.1c-0.3,0-0.7,0-1,0.1c-0.3,0-0.7,0-1,0.1
			c-0.3,0-0.6,0-0.8,0c-0.1,0-0.3,0-0.4-0.1c-0.1-0.1-0.2-0.2-0.3-0.4l-11.2-34.9c-0.4-1.1-0.8-1.8-1.4-2.2c-0.6-0.4-1.2-0.5-2-0.5
			c-0.2,0-0.5,0-0.7,0c-0.2,0-0.5,0.1-0.8,0.1l-0.2-1.9c1-0.2,2-0.4,3-0.5c1-0.1,2-0.3,2.8-0.4c0.8-0.1,1.6-0.2,2.2-0.2
			c0.6-0.1,1-0.1,1.1-0.1c0.3,0,0.6,0.1,0.8,0.3c0.2,0.2,0.3,0.5,0.4,0.9l10.1,31.7h0.1l7.5-22.7l-2.8-8.7c-0.1-0.3-0.1-0.5,0.1-0.7
			c0.1-0.2,0.3-0.3,0.5-0.3c0.8-0.2,1.7-0.3,2.6-0.4c0.9-0.1,1.7-0.1,2.3-0.1c0.3,0,0.5,0.1,0.7,0.2c0.1,0.1,0.3,0.3,0.3,0.6
			l10.4,32.4h0.1L454.9,58.7z"/>
		<path d="M476.3,92.2c0,0.6,0,1,0.1,1.3c0,0.3,0.1,0.6,0.3,0.7c0.1,0.2,0.4,0.3,0.7,0.3c0.3,0,0.8,0.1,1.4,0.1h4.4
			c1.8,0,3.3,0,4.4-0.1c1.2-0.1,2.1-0.3,2.9-0.8c0.8-0.4,1.5-1.2,2.1-2.1c0.6-1,1.3-2.4,2-4.1l1.7,0.4c0,0.2-0.1,0.6-0.2,1.2
			c-0.1,0.7-0.2,1.4-0.4,2.3c-0.2,0.9-0.3,1.8-0.5,2.7c-0.2,0.9-0.4,1.7-0.6,2.4c-0.3,0.8-0.9,1.2-1.7,1.2c-0.8,0-1.9,0-3,0
			c-1.2,0-2.5,0-3.9,0c-1.4,0-3,0-4.6,0c-1.6,0-3.3,0-5.1,0h-5.7c-0.3,0-0.5-0.1-0.7-0.3c-0.1-0.2-0.2-0.4-0.2-0.6v-33
			c0-0.8-0.1-1.4-0.3-1.8c-0.2-0.4-0.5-0.7-0.9-0.9c-0.4-0.2-0.8-0.3-1.4-0.3c-0.5,0-1,0-1.6,0.1l-0.2-1.9c0.5-0.1,1.2-0.2,2.1-0.4
			c0.9-0.2,1.9-0.3,2.9-0.4c1-0.1,2-0.2,2.9-0.3c0.9-0.1,1.7-0.1,2.2-0.1H488c0.8,0,1.6,0,2.4,0c0.8,0,1.8,0,2.8-0.1
			c0.4,0,0.6,0.2,0.6,0.5c0,0.3,0.1,0.7,0.1,1.3c0,0.5,0.1,1.1,0.1,1.7c0,0.6,0.1,1.2,0.1,1.9c0,0.6,0,1.2,0.1,1.8
			c0,0.6,0,1,0.1,1.4c0,0.4,0,0.6,0,0.7l-1.7,0.2c-0.4-1.6-0.8-2.9-1.2-3.8c-0.4-0.9-0.9-1.5-1.5-2c-0.6-0.4-1.4-0.7-2.4-0.7
			c-1-0.1-2.2-0.1-3.7-0.1h-6c-0.4,0-0.7,0-0.9,0c-0.2,0-0.4,0.1-0.4,0.2c-0.1,0.1-0.1,0.2-0.2,0.4c0,0.2,0,0.4,0,0.7v13.9
			c1.9-0.1,3.6-0.2,5.2-0.3c1.6-0.1,2.9-0.2,4.1-0.2c1.2,0,2.1-0.1,2.8-0.1c0.7,0,1.1-0.1,1.3-0.1c0.3,0,0.5,0.1,0.7,0.3
			c0.2,0.2,0.3,0.4,0.3,0.8c0,0.4,0,0.9-0.1,1.3c0,0.5-0.1,1-0.2,1.5l-14.1-0.5V92.2z"/>
		<path d="M513.3,76.8c1.8-0.1,3.3-0.4,4.7-0.8c1.4-0.4,2.5-1,3.4-1.7c0.9-0.7,1.6-1.7,2.1-2.8c0.5-1.1,0.7-2.5,0.7-4.1
			c0-1.3-0.3-2.5-0.8-3.5c-0.5-1-1.2-1.8-2.1-2.5c-0.9-0.7-1.9-1.1-3.2-1.5c-1.2-0.3-2.5-0.5-3.9-0.5c-0.9,0-1.6,0.1-2.1,0.2
			c-0.5,0.1-0.7,0.6-0.7,1.3v35.6c0,0.5-0.3,0.9-0.8,1c-0.4,0.1-0.8,0.1-1.3,0.2c-0.5,0.1-0.9,0.1-1.4,0.1c-0.4,0-0.9,0.1-1.2,0.1
			c-0.4,0-0.7,0-0.8,0c-0.5,0-0.8-0.3-0.8-0.9V62.6c0-1.1-0.3-1.9-0.8-2.3c-0.5-0.4-1.2-0.6-2-0.6c-0.5,0-1,0-1.5,0.1l-0.2-1.9
			c2.3-0.4,4.7-0.7,7.1-1c2.5-0.3,5-0.4,7.5-0.4c1.1,0,2.3,0,3.5,0.1c1.2,0.1,2.4,0.3,3.6,0.5c1.2,0.3,2.3,0.6,3.3,1
			c1.1,0.4,2,1,2.8,1.8c0.8,0.7,1.4,1.6,1.9,2.6c0.5,1,0.7,2.2,0.7,3.6c0,1.5-0.2,2.8-0.7,3.9c-0.4,1.1-1.1,2.1-1.9,3
			c-0.8,0.9-1.7,1.6-2.8,2.2c-1.1,0.6-2.2,1.1-3.4,1.6v0.2c0.6,0.1,1.2,0.3,1.9,0.5c0.7,0.2,1.3,0.6,1.9,1c0.6,0.4,1.2,1,1.8,1.7
			c0.5,0.7,1,1.5,1.3,2.5l2.5,7.9c0.3,1.1,0.7,1.9,0.9,2.6s0.6,1.1,0.9,1.5c0.3,0.3,0.7,0.6,1.1,0.7c0.4,0.1,0.9,0.2,1.5,0.2
			l0.1,1.8c-0.4,0.1-0.9,0.2-1.4,0.3c-0.5,0.1-1,0.1-1.5,0.2c-0.5,0-1,0.1-1.4,0.1c-0.4,0-0.7,0.1-0.9,0.1c-0.7,0-1.4-0.1-2-0.3
			c-0.6-0.2-1.1-0.5-1.5-0.9c-0.4-0.4-0.9-1-1.2-1.7c-0.4-0.7-0.7-1.6-1-2.6l-2.4-8.4c-0.3-1.2-0.8-2.1-1.2-2.9
			c-0.5-0.7-1.1-1.3-1.8-1.6c-0.7-0.4-1.6-0.6-2.6-0.8c-1-0.1-2.2-0.2-3.7-0.3L513.3,76.8z"/>
		<path d="M549.6,96.5c0,0.5-0.3,0.9-0.8,1c-0.4,0.1-0.8,0.1-1.3,0.2c-0.5,0.1-0.9,0.1-1.4,0.1c-0.4,0-0.9,0.1-1.2,0.1
			c-0.4,0-0.7,0-0.8,0c-0.5,0-0.8-0.3-0.8-0.9V63.6c0-0.8-0.1-1.4-0.3-1.8c-0.2-0.4-0.5-0.7-0.9-0.9c-0.4-0.2-0.8-0.3-1.4-0.3
			c-0.5,0-1,0-1.6,0.1l-0.2-1.9c0.5-0.1,1.2-0.2,2.1-0.4c0.9-0.1,1.9-0.3,2.9-0.4c1-0.1,2-0.2,2.9-0.3c0.9-0.1,1.7-0.1,2.2-0.1H561
			c0.8,0,1.6,0,2.4,0c0.8,0,1.8,0,2.8-0.1c0.4,0,0.6,0.2,0.6,0.5c0,0.3,0.1,0.7,0.1,1.3c0,0.5,0.1,1.1,0.1,1.7
			c0,0.6,0.1,1.2,0.1,1.9c0,0.6,0,1.2,0.1,1.8c0,0.6,0,1,0.1,1.4c0,0.4,0,0.6,0,0.7l-1.7,0.2c-0.4-1.6-0.8-2.9-1.2-3.8
			c-0.4-0.9-0.9-1.5-1.5-2c-0.6-0.4-1.4-0.7-2.4-0.7c-1-0.1-2.2-0.1-3.7-0.1h-5.8c-0.4,0-0.7,0-0.9,0c-0.2,0-0.4,0.1-0.4,0.2
			c-0.1,0.1-0.1,0.2-0.2,0.4c0,0.2,0,0.4,0,0.7v15.4c1.9-0.1,3.6-0.2,5.1-0.3c1.5-0.1,2.9-0.2,4-0.2c1.1,0,2-0.1,2.7-0.1
			c0.7,0,1.1-0.1,1.3-0.1c0.3,0,0.5,0.1,0.7,0.3c0.2,0.2,0.3,0.4,0.3,0.8c0,0.4,0,0.9-0.1,1.3c0,0.5-0.1,1-0.2,1.5l-13.7-0.5V96.5z"
			/>
		<path d="M583,92.2c0,0.6,0,1,0.1,1.3c0,0.3,0.1,0.6,0.3,0.7c0.1,0.2,0.4,0.3,0.7,0.3c0.3,0,0.8,0.1,1.4,0.1h3.4
			c1.8,0,3.3,0,4.5-0.1c1.2-0.1,2.2-0.4,3-0.9c0.8-0.5,1.5-1.2,2.1-2.2c0.6-1,1.3-2.4,2.1-4.2l1.7,0.4c0,0.2-0.1,0.6-0.2,1.3
			c-0.1,0.7-0.3,1.5-0.4,2.4c-0.2,0.9-0.4,1.8-0.6,2.7c-0.2,0.9-0.4,1.7-0.6,2.4c-0.3,0.8-0.9,1.2-1.7,1.2c-1.7,0-3.8,0-6.4-0.1
			c-2.6,0-5.7,0-9.2,0h-5.7c-0.3,0-0.5-0.1-0.7-0.3c-0.1-0.2-0.2-0.4-0.2-0.6V63c0-0.8-0.1-1.5-0.3-1.9c-0.2-0.4-0.5-0.8-0.9-0.9
			c-0.4-0.2-0.8-0.3-1.3-0.3c-0.5,0-1.1,0-1.7,0.1l-0.2-1.9c1.2-0.2,2.4-0.4,3.5-0.6c1.1-0.1,2.1-0.3,3-0.4c0.9-0.1,1.6-0.2,2.1-0.2
			c0.6,0,0.9-0.1,1.1-0.1c0.7,0,1.1,0.4,1.1,1.1V92.2z"/>
		<path d="M615.7,92.2c0,0.6,0,1,0.1,1.3c0,0.3,0.1,0.6,0.3,0.7c0.1,0.2,0.4,0.3,0.7,0.3c0.3,0,0.8,0.1,1.4,0.1h4.4
			c1.8,0,3.3,0,4.4-0.1c1.2-0.1,2.1-0.3,2.9-0.8c0.8-0.4,1.5-1.2,2.1-2.1c0.6-1,1.3-2.4,2-4.1l1.7,0.4c0,0.2-0.1,0.6-0.2,1.2
			c-0.1,0.7-0.2,1.4-0.4,2.3c-0.2,0.9-0.3,1.8-0.5,2.7c-0.2,0.9-0.4,1.7-0.6,2.4c-0.3,0.8-0.9,1.2-1.7,1.2c-0.8,0-1.9,0-3,0
			c-1.2,0-2.5,0-3.9,0c-1.4,0-3,0-4.6,0c-1.6,0-3.3,0-5.1,0h-5.7c-0.3,0-0.5-0.1-0.7-0.3c-0.1-0.2-0.2-0.4-0.2-0.6v-33
			c0-0.8-0.1-1.4-0.3-1.8c-0.2-0.4-0.5-0.7-0.9-0.9c-0.4-0.2-0.8-0.3-1.4-0.3c-0.5,0-1,0-1.6,0.1l-0.2-1.9c0.5-0.1,1.2-0.2,2.1-0.4
			c0.9-0.2,1.9-0.3,2.9-0.4c1-0.1,2-0.2,2.9-0.3c0.9-0.1,1.7-0.1,2.2-0.1h12.5c0.8,0,1.6,0,2.4,0c0.8,0,1.8,0,2.8-0.1
			c0.4,0,0.6,0.2,0.6,0.5c0,0.3,0.1,0.7,0.1,1.3c0,0.5,0.1,1.1,0.1,1.7c0,0.6,0.1,1.2,0.1,1.9c0,0.6,0,1.2,0.1,1.8
			c0,0.6,0,1,0.1,1.4c0,0.4,0,0.6,0,0.7l-1.7,0.2c-0.4-1.6-0.8-2.9-1.2-3.8c-0.4-0.9-0.9-1.5-1.5-2c-0.6-0.4-1.4-0.7-2.4-0.7
			c-1-0.1-2.2-0.1-3.7-0.1h-6c-0.4,0-0.7,0-0.9,0c-0.2,0-0.4,0.1-0.4,0.2c-0.1,0.1-0.1,0.2-0.2,0.4c0,0.2,0,0.4,0,0.7v13.9
			c1.9-0.1,3.6-0.2,5.2-0.3c1.6-0.1,2.9-0.2,4.1-0.2c1.2,0,2.1-0.1,2.8-0.1c0.7,0,1.1-0.1,1.3-0.1c0.3,0,0.5,0.1,0.7,0.3
			c0.2,0.2,0.3,0.4,0.3,0.8c0,0.4,0,0.9-0.1,1.3c0,0.5-0.1,1-0.2,1.5l-14.1-0.5V92.2z"/>
		<path d="M639.4,58.1c1-0.2,2-0.4,3-0.5c1-0.1,1.9-0.3,2.7-0.4c0.8-0.1,1.5-0.2,2.1-0.2c0.6-0.1,0.9-0.1,1.1-0.1
			c0.3,0,0.6,0.1,0.8,0.3c0.2,0.2,0.4,0.5,0.6,0.9l8.1,13.7l8.3-13.2c0.2-0.3,0.4-0.5,0.5-0.6c0.2-0.2,0.4-0.3,0.7-0.4
			c0.3-0.1,0.7-0.2,1-0.2c0.4,0,0.7-0.1,1.1-0.1c0.3,0,0.7-0.1,0.9-0.1c0.3,0,0.5,0,0.7,0c0.4,0,0.6,0.1,0.6,0.3
			c0,0.2,0,0.4-0.2,0.7l-11.7,17l12.5,21.2c0.1,0.3,0.2,0.5,0.1,0.7c-0.1,0.2-0.3,0.3-0.6,0.4c-0.4,0.1-0.9,0.1-1.4,0.2
			c-0.5,0.1-1.1,0.1-1.6,0.1c-0.5,0-1,0.1-1.5,0.1c-0.4,0-0.7,0-0.9,0c-0.4,0-0.7-0.2-0.9-0.6l-10-16.8l-9.9,15.9
			c-0.2,0.3-0.3,0.5-0.5,0.6c-0.2,0.2-0.4,0.3-0.7,0.4c-0.3,0.1-0.7,0.2-1,0.2c-0.4,0-0.7,0.1-1.1,0.1c-0.4,0-0.7,0.1-1,0.1
			c-0.3,0-0.5,0-0.7,0c-0.4,0-0.6-0.1-0.6-0.3c0-0.2,0-0.4,0.2-0.7l13.4-19.8l-8.7-14.7c-0.3-0.5-0.6-0.9-0.9-1.2
			c-0.3-0.3-0.6-0.6-0.8-0.8c-0.3-0.2-0.6-0.3-0.9-0.4c-0.3-0.1-0.6-0.1-1-0.1c-0.2,0-0.5,0-0.7,0c-0.2,0-0.5,0.1-0.8,0.1
			L639.4,58.1z"/>
		<path d="M347.9,124.5c-0.2-1.3-0.6-2.3-1.1-3.2c-0.5-0.9-1.1-1.7-1.9-2.2c-0.8-0.6-1.6-1-2.6-1.3c-1-0.3-2-0.4-3.1-0.4
			c-1.1,0-2.1,0.1-3.1,0.4c-1,0.3-1.9,0.7-2.6,1.3c-0.8,0.6-1.4,1.3-1.8,2.2c-0.4,0.9-0.7,2-0.7,3.2c0,1.1,0.3,2,0.8,2.8
			c0.5,0.8,1.2,1.5,2.1,2.1c0.9,0.6,1.9,1.1,3,1.6c1.1,0.5,2.3,0.9,3.6,1.4c1.4,0.5,2.7,1.1,4.1,1.7c1.4,0.6,2.6,1.3,3.7,2.2
			c1.1,0.9,2,1.9,2.6,3.2c0.7,1.2,1,2.8,1,4.6c0,1.6-0.2,3-0.7,4.2c-0.4,1.2-1.1,2.3-1.9,3.2c-0.8,0.9-1.7,1.7-2.8,2.3
			c-1.1,0.6-2.2,1.1-3.4,1.5c-1.2,0.4-2.5,0.6-3.8,0.8c-1.3,0.2-2.6,0.2-3.9,0.2c-1.5,0-3.1-0.1-4.6-0.3c-1.5-0.2-3-0.4-4.6-0.8
			c-0.2,0-0.4-0.1-0.5-0.3c-0.1-0.1-0.2-0.3-0.2-0.5c0-0.5-0.1-1.2-0.1-2.1c0-0.9-0.1-1.9-0.1-2.8c0-1-0.1-1.8-0.1-2.6
			c0-0.8,0-1.2,0-1.4l1.7-0.2c0.2,1.4,0.5,2.6,1.1,3.6c0.6,1,1.3,1.8,2.1,2.5c0.9,0.7,1.8,1.1,3,1.4c1.1,0.3,2.3,0.5,3.6,0.5
			c1.1,0,2.3-0.1,3.3-0.4c1.1-0.3,2-0.7,2.9-1.3c0.8-0.6,1.5-1.3,2-2.2c0.5-0.9,0.8-2,0.8-3.3c0-1.1-0.3-2-0.8-2.7
			c-0.5-0.8-1.2-1.4-2.1-2c-0.9-0.6-1.9-1.1-3-1.6c-1.1-0.5-2.3-0.9-3.5-1.4c-1.4-0.5-2.7-1.1-4.1-1.8c-1.4-0.6-2.6-1.4-3.7-2.3
			c-1.1-0.9-2-2-2.6-3.3c-0.7-1.3-1-2.8-1-4.7c0-2.2,0.4-4.1,1.3-5.6c0.9-1.5,2-2.7,3.5-3.6c1.4-0.9,3.1-1.6,4.9-2
			c1.8-0.4,3.7-0.6,5.6-0.6c1.3,0,2.6,0.1,4.1,0.3c1.5,0.2,2.9,0.5,4.2,0.8c0.2,0,0.4,0.1,0.5,0.3c0.1,0.1,0.2,0.3,0.2,0.5
			c0,0.5,0.1,1.2,0.1,2s0.1,1.7,0.1,2.6c0,0.9,0.1,1.7,0.1,2.4c0,0.7,0,1.1,0,1.3L347.9,124.5z"/>
		<path d="M364.1,114.4c0.3,0,0.6,0.1,0.8,0.3c0.2,0.2,0.4,0.5,0.6,0.9l9.8,17.5l8.3-16.9c0.1-0.3,0.3-0.5,0.4-0.7
			c0.2-0.2,0.4-0.3,0.7-0.4c0.3-0.1,0.7-0.2,1-0.2c0.4,0,0.7-0.1,1.1-0.1c0.3,0,0.7-0.1,0.9-0.1c0.3,0,0.5,0,0.7,0
			c0.4,0,0.6,0.1,0.6,0.3c0,0.2-0.1,0.4-0.2,0.7l-12.3,20.7v17.6c0,0.5-0.3,0.9-0.8,1c-0.4,0.1-0.8,0.1-1.3,0.2
			c-0.5,0.1-0.9,0.1-1.4,0.1c-0.4,0-0.9,0.1-1.2,0.1c-0.4,0-0.7,0-0.8,0c-0.5,0-0.8-0.3-0.8-0.9V137l-9.5-17c-0.6-1-1.1-1.7-1.6-2.1
			c-0.5-0.4-1.1-0.6-1.9-0.6c-0.4,0-0.8,0.1-1.4,0.2l-0.2-1.9c1-0.2,2-0.4,2.9-0.5c1-0.1,1.8-0.3,2.6-0.4c0.8-0.1,1.4-0.2,2-0.2
			C363.6,114.4,363.9,114.4,364.1,114.4"/>
		<path d="M416.1,124.5c-0.2-1.3-0.6-2.3-1.1-3.2c-0.5-0.9-1.2-1.7-1.9-2.2c-0.8-0.6-1.6-1-2.6-1.3c-1-0.3-2-0.4-3.1-0.4
			c-1.1,0-2.1,0.1-3.1,0.4c-1,0.3-1.9,0.7-2.6,1.3c-0.8,0.6-1.4,1.3-1.8,2.2c-0.4,0.9-0.7,2-0.7,3.2c0,1.1,0.3,2,0.8,2.8
			c0.5,0.8,1.2,1.5,2.1,2.1c0.9,0.6,1.9,1.1,3,1.6c1.1,0.5,2.3,0.9,3.6,1.4c1.4,0.5,2.7,1.1,4.1,1.7c1.4,0.6,2.6,1.3,3.7,2.2
			c1.1,0.9,2,1.9,2.6,3.2c0.7,1.2,1,2.8,1,4.6c0,1.6-0.2,3-0.7,4.2c-0.4,1.2-1.1,2.3-1.9,3.2c-0.8,0.9-1.7,1.7-2.8,2.3
			c-1.1,0.6-2.2,1.1-3.4,1.5c-1.2,0.4-2.5,0.6-3.8,0.8c-1.3,0.2-2.6,0.2-3.9,0.2c-1.5,0-3.1-0.1-4.6-0.3c-1.5-0.2-3-0.4-4.6-0.8
			c-0.2,0-0.4-0.1-0.5-0.3c-0.1-0.1-0.2-0.3-0.2-0.5c0-0.5-0.1-1.2-0.1-2.1c0-0.9-0.1-1.9-0.1-2.8c0-1-0.1-1.8-0.1-2.6
			c0-0.8,0-1.2,0-1.4l1.7-0.2c0.2,1.4,0.5,2.6,1.1,3.6c0.6,1,1.3,1.8,2.1,2.5c0.9,0.7,1.8,1.1,3,1.4c1.1,0.3,2.3,0.5,3.6,0.5
			c1.1,0,2.3-0.1,3.3-0.4c1.1-0.3,2-0.7,2.9-1.3c0.8-0.6,1.5-1.3,2-2.2c0.5-0.9,0.8-2,0.8-3.3c0-1.1-0.3-2-0.8-2.7
			c-0.5-0.8-1.2-1.4-2.1-2c-0.9-0.6-1.9-1.1-3-1.6c-1.1-0.5-2.3-0.9-3.5-1.4c-1.4-0.5-2.7-1.1-4.1-1.8c-1.4-0.6-2.6-1.4-3.7-2.3
			c-1.1-0.9-2-2-2.6-3.3c-0.7-1.3-1-2.8-1-4.7c0-2.2,0.4-4.1,1.3-5.6c0.9-1.5,2-2.7,3.5-3.6c1.4-0.9,3.1-1.6,4.9-2
			c1.8-0.4,3.7-0.6,5.6-0.6c1.3,0,2.6,0.1,4.1,0.3c1.5,0.2,2.9,0.5,4.2,0.8c0.2,0,0.4,0.1,0.5,0.3c0.1,0.1,0.2,0.3,0.2,0.5
			c0,0.5,0.1,1.2,0.1,2c0,0.9,0.1,1.7,0.1,2.6c0,0.9,0.1,1.7,0.1,2.4c0,0.7,0,1.1,0,1.3L416.1,124.5z"/>
		<path d="M435.4,117.9c-1.5,0-2.7,0-3.7,0.1c-1,0.1-1.8,0.3-2.4,0.8c-0.6,0.4-1.2,1.1-1.6,2.1c-0.4,1-0.8,2.3-1.2,4.1l-1.7-0.2
			c0-0.1,0-0.3,0-0.8c0-0.4,0-0.9,0.1-1.5c0-0.6,0.1-1.2,0.1-1.9c0-0.7,0.1-1.3,0.1-2c0-0.7,0.1-1.3,0.1-1.8c0-0.6,0.1-1,0.1-1.3
			c0-0.3,0.3-0.5,0.6-0.5c2.1,0,4,0.1,6,0.1c1.9,0,3.7,0,5.3,0h11.4c1.6,0,3.4,0,5.3,0c1.9,0,3.9-0.1,6-0.1c0.3,0,0.5,0.2,0.6,0.5
			c0,0.3,0.1,0.8,0.1,1.3c0,0.6,0.1,1.2,0.1,1.8c0,0.7,0.1,1.3,0.1,2c0,0.7,0,1.3,0.1,1.9c0,0.6,0,1.1,0.1,1.5c0,0.4,0,0.7,0,0.8
			l-1.7,0.2c-0.4-1.7-0.8-3.1-1.2-4.1c-0.4-1-0.9-1.7-1.5-2.1c-0.6-0.4-1.4-0.7-2.4-0.8c-1-0.1-2.2-0.1-3.7-0.1h-4.4v36.1
			c0,0.5-0.3,0.9-0.8,1c-0.4,0.1-0.8,0.1-1.3,0.2c-0.5,0.1-0.9,0.1-1.4,0.1c-0.4,0-0.9,0.1-1.2,0.1c-0.4,0-0.7,0-0.8,0
			c-0.5,0-0.8-0.3-0.8-0.9v-36.6H435.4z"/>
		<path d="M476.6,149.7c0,0.6,0,1,0.1,1.3c0,0.3,0.1,0.6,0.3,0.7c0.1,0.2,0.4,0.3,0.7,0.3c0.3,0,0.8,0.1,1.4,0.1h4.4
			c1.8,0,3.3,0,4.4-0.1c1.2-0.1,2.1-0.3,2.9-0.8c0.8-0.4,1.5-1.2,2.1-2.1c0.6-1,1.3-2.4,2-4.1l1.7,0.4c0,0.2-0.1,0.6-0.2,1.2
			c-0.1,0.7-0.2,1.4-0.4,2.3c-0.2,0.9-0.3,1.8-0.6,2.7c-0.2,0.9-0.4,1.7-0.6,2.4c-0.3,0.8-0.9,1.2-1.7,1.2c-0.8,0-1.9,0-3,0
			c-1.2,0-2.5,0-3.9,0c-1.4,0-3,0-4.6,0c-1.6,0-3.3,0-5.1,0h-5.7c-0.3,0-0.5-0.1-0.7-0.3c-0.1-0.2-0.2-0.4-0.2-0.6v-33
			c0-0.8-0.1-1.4-0.3-1.8c-0.2-0.4-0.5-0.7-0.9-0.9c-0.4-0.2-0.8-0.3-1.4-0.3c-0.5,0-1,0-1.6,0.1l-0.2-1.9c0.5-0.1,1.2-0.2,2.1-0.4
			c0.9-0.1,1.9-0.3,2.9-0.4c1-0.1,2-0.2,2.9-0.3c0.9-0.1,1.7-0.1,2.2-0.1h12.5c0.8,0,1.6,0,2.4,0c0.8,0,1.8,0,2.8-0.1
			c0.4,0,0.6,0.2,0.6,0.5c0,0.3,0.1,0.7,0.1,1.3c0,0.5,0.1,1.1,0.1,1.7c0,0.6,0.1,1.2,0.1,1.9c0,0.6,0,1.2,0.1,1.8
			c0,0.6,0,1,0.1,1.4c0,0.4,0,0.6,0,0.7l-1.7,0.2c-0.4-1.6-0.8-2.9-1.2-3.8c-0.4-0.9-0.9-1.5-1.5-2c-0.6-0.4-1.4-0.7-2.4-0.7
			c-1-0.1-2.2-0.1-3.7-0.1h-6c-0.4,0-0.7,0-0.9,0c-0.2,0-0.4,0.1-0.4,0.2c-0.1,0.1-0.1,0.2-0.2,0.4c0,0.2,0,0.4,0,0.7v13.9
			c1.9-0.1,3.6-0.2,5.2-0.3c1.6-0.1,2.9-0.2,4.1-0.2c1.2,0,2.1-0.1,2.8-0.1c0.7,0,1.1-0.1,1.3-0.1c0.3,0,0.5,0.1,0.7,0.3
			c0.2,0.2,0.3,0.4,0.3,0.8c0,0.4,0,0.9-0.1,1.3c0,0.5-0.1,1-0.2,1.5l-14.1-0.5V149.7z"/>
		<path d="M539.4,123.6l-12.8,31.3c-0.1,0.3-0.3,0.4-0.6,0.4c-0.4,0-0.9,0.1-1.4,0.1c-0.5,0-1,0-1.6,0c-0.4,0-0.6-0.2-0.8-0.5
			l-12-31.7l-4,31.6c0,0.3-0.3,0.4-0.6,0.4c-0.4,0-0.9,0.1-1.5,0.1c-0.6,0-1.2,0.1-1.9,0.1c-0.4,0-0.5-0.2-0.5-0.5l6.7-36.7l-1.1-3
			c-0.2-0.5,0-0.9,0.6-1c0.4-0.1,0.8-0.1,1.3-0.2c0.5-0.1,1-0.1,1.4-0.2c0.5,0,0.9-0.1,1.3-0.1c0.4,0,0.7,0,0.9,0
			c0.3,0,0.4,0.1,0.6,0.2c0.1,0.1,0.3,0.3,0.4,0.6l12.3,32.4l12.6-28.9l-0.3-2.9c0-0.3,0-0.5,0.1-0.7c0.1-0.2,0.3-0.3,0.6-0.3
			c0.4-0.1,0.8-0.1,1.3-0.2c0.5-0.1,1-0.1,1.4-0.2c0.5,0,0.9-0.1,1.3-0.1c0.4,0,0.7,0,0.8,0c0.6,0,0.9,0.3,1,0.8l4.7,39.4
			c0,0.3,0,0.5-0.1,0.7c-0.1,0.2-0.3,0.3-0.6,0.4c-0.4,0.1-0.8,0.1-1.3,0.2c-0.5,0.1-1,0.1-1.5,0.1c-0.5,0-0.9,0.1-1.3,0.1
			c-0.4,0-0.7,0-0.9,0c-0.2,0-0.4,0-0.5-0.1c-0.1-0.1-0.2-0.2-0.2-0.4L539.4,123.6z"/>
		<path d="M579.3,124.5c-0.2-1.3-0.6-2.3-1.1-3.2c-0.5-0.9-1.2-1.7-1.9-2.2c-0.8-0.6-1.6-1-2.6-1.3c-1-0.3-2-0.4-3.1-0.4
			c-1.1,0-2.1,0.1-3.1,0.4c-1,0.3-1.9,0.7-2.6,1.3c-0.8,0.6-1.4,1.3-1.8,2.2c-0.4,0.9-0.7,2-0.7,3.2c0,1.1,0.3,2,0.8,2.8
			c0.5,0.8,1.2,1.5,2.1,2.1c0.9,0.6,1.9,1.1,3,1.6c1.1,0.5,2.3,0.9,3.6,1.4c1.4,0.5,2.7,1.1,4.1,1.7c1.4,0.6,2.6,1.3,3.7,2.2
			c1.1,0.9,2,1.9,2.6,3.2c0.7,1.2,1,2.8,1,4.6c0,1.6-0.2,3-0.7,4.2c-0.4,1.2-1.1,2.3-1.9,3.2c-0.8,0.9-1.7,1.7-2.8,2.3
			c-1.1,0.6-2.2,1.1-3.4,1.5c-1.2,0.4-2.5,0.6-3.8,0.8c-1.3,0.2-2.6,0.2-3.9,0.2c-1.5,0-3.1-0.1-4.6-0.3c-1.5-0.2-3-0.4-4.5-0.8
			c-0.2,0-0.4-0.1-0.5-0.3c-0.1-0.1-0.2-0.3-0.2-0.5c0-0.5-0.1-1.2-0.1-2.1c0-0.9-0.1-1.9-0.1-2.8c0-1-0.1-1.8-0.1-2.6
			c0-0.8,0-1.2,0-1.4l1.7-0.2c0.2,1.4,0.5,2.6,1.1,3.6c0.6,1,1.3,1.8,2.1,2.5c0.9,0.7,1.8,1.1,3,1.4c1.1,0.3,2.3,0.5,3.6,0.5
			c1.1,0,2.3-0.1,3.3-0.4c1.1-0.3,2-0.7,2.9-1.3c0.8-0.6,1.5-1.3,2-2.2c0.5-0.9,0.8-2,0.8-3.3c0-1.1-0.3-2-0.8-2.7
			c-0.5-0.8-1.2-1.4-2.1-2c-0.9-0.6-1.9-1.1-3-1.6c-1.1-0.5-2.3-0.9-3.5-1.4c-1.4-0.5-2.7-1.1-4.1-1.8c-1.4-0.6-2.6-1.4-3.7-2.3
			c-1.1-0.9-2-2-2.6-3.3c-0.7-1.3-1-2.8-1-4.7c0-2.2,0.4-4.1,1.3-5.6c0.9-1.5,2-2.7,3.5-3.6c1.4-0.9,3.1-1.6,4.9-2
			c1.8-0.4,3.7-0.6,5.6-0.6c1.3,0,2.6,0.1,4.1,0.3c1.5,0.2,2.9,0.5,4.2,0.8c0.2,0,0.4,0.1,0.5,0.3c0.1,0.1,0.2,0.3,0.2,0.5
			c0,0.5,0.1,1.2,0.1,2c0,0.9,0.1,1.7,0.1,2.6c0,0.9,0.1,1.7,0.1,2.4c0,0.7,0,1.1,0,1.3L579.3,124.5z"/>
	</g>
</g>
</svg>
