<svg id="Layer_1" data-name="Layer 1" xmlns="http://www.w3.org/2000/svg" viewBox="0 0 718.21 196.25"><defs><style>.cls-1{fill:#231f20;}</style></defs><title>juniper-networks-black-rgb</title><path class="cls-1" d="M425.11,283.57h4.41l22.73,31.35V283.57h3.9v38h-3.69L429,289.32v32.27h-3.9Z" transform="translate(-72.84 -125.95)"/><path class="cls-1" d="M465.85,283.57H491v3.85H469.9V300h20.57v3.8H469.9v14.1h21.29v3.7H465.85Z" transform="translate(-72.84 -125.95)"/><path class="cls-1" d="M511.35,287.42H497.09v-3.85h32.58v3.85H515.41v34.17h-4.06Z" transform="translate(-72.84 -125.95)"/><path class="cls-1" d="M534.59,283.57h4.16l10,31.45L559,283.57h3.49L572.61,315l10-31.45h3.9l-12.21,38.27h-3.49L560.6,290.19l-10.21,31.65h-3.54Z" transform="translate(-72.84 -125.95)"/><path class="cls-1" d="M590.2,302.55c0-13.54,6.93-19.59,19.09-19.59s19.18,6.05,19.18,19.59-7,19.65-19.18,19.65S590.2,316.15,590.2,302.55Zm34.22.05c0-10.26-4.77-15.8-15.13-15.8s-15,5.54-15,15.8,4.72,15.86,15,15.86S624.42,312.92,624.42,302.6Z" transform="translate(-72.84 -125.95)"/><path class="cls-1" d="M652.07,306.09H640.68v15.5h-3.95v-38h16.42c8.82,0,12.82,3.54,12.82,11.08,0,6.57-3.12,10.42-9.74,11.29l9.18,15.65H661.1Zm1.13-3.69c5.39,0,8.72-1.64,8.72-7.65s-3.23-7.43-8.87-7.43H640.68V302.4Z" transform="translate(-72.84 -125.95)"/><path class="cls-1" d="M686.14,301.42l-7.6,8.31v11.86h-3.95v-38h3.95v21l19.24-21h4.67L688.8,298.5l15.5,23.09h-4.57Z" transform="translate(-72.84 -125.95)"/><path class="cls-1" d="M707.68,317.74l2.05-3.08a24.59,24.59,0,0,0,13.6,3.85c7.85,0,11.34-2.21,11.34-7.44,0-5.39-4.52-6.15-11.34-7.38-8.21-1.44-13.75-2.83-13.75-10.52,0-7.34,4.72-10.21,13.75-10.21,5.95,0,10.21,1.33,13.23,3.38l-2.15,3.29a20.71,20.71,0,0,0-11.08-3c-6.82,0-9.75,1.9-9.75,6.41,0,4.83,3.95,5.75,10.72,7,8.31,1.49,14.32,2.72,14.32,10.88,0,7.54-4.83,11.18-15.19,11.18A27.51,27.51,0,0,1,707.68,317.74Z" transform="translate(-72.84 -125.95)"/><path class="cls-1" d="M778.36,126.46c-53.44,0-55.71,23.94-55.71,57.72v82.93h12.6V184.18c0-25.46-1-45.88,43.11-45.88a109.3,109.3,0,0,1,12.69.69V127C787.16,126.65,783,126.46,778.36,126.46Z" transform="translate(-72.84 -125.95)"/><path class="cls-1" d="M155,213.17V129.23H167.9v84.19c0,24.2-.25,44.62,44.11,44.62,44.11,0,43.11-20.42,43.11-45.88V129.23h12.6v82.93c0,33.78-2.27,57.72-55.71,57.72C158.32,269.88,155,245.94,155,213.17Z" transform="translate(-72.84 -125.95)"/><path class="cls-1" d="M401.72,183.17v83.94H388.87V182.92c0-24.2.25-44.62-44.12-44.62-44.11,0-43.1,20.42-43.1,45.88v82.93H289V184.18c0-33.78,2.28-57.72,55.71-57.72C398.45,126.46,401.72,150.4,401.72,183.17Z" transform="translate(-72.84 -125.95)"/><path class="cls-1" d="M425.11,129.48h12.34V267.11H425.11Z" transform="translate(-72.84 -125.95)"/><path class="cls-1" d="M460.56,129.48H525c32,0,46.44,15.88,46.44,44.11,0,28.42-14.3,45.7-46.62,45.7H472.9v47.82H460.56Zm64.62,77.44c22.26,0,33.32-10.85,33.32-32.77s-11.93-32.31-33.87-32.31H472.9v65.08Z" transform="translate(-72.84 -125.95)"/><path class="cls-1" d="M585.79,197.79c0-40.58,11.6-71.84,63.53-71.84,53.69,0,55.45,36.05,55.2,74.11H598.15c.25,33.53,8.56,58.49,52.18,58.49,23.19,0,33.78-6.31,45.12-14.63l7,9.33c-12.6,9.33-27.47,16.63-52.17,16.63C595.88,269.88,585.79,238.37,585.79,197.79Zm12.61-9.33h93.77c-1.26-27.47-3-50.91-43.11-50.91C610.5,137.55,599.91,158.47,598.4,188.46Z" transform="translate(-72.84 -125.95)"/><path d="M77.64,297c53.44,0,55.71-24,55.71-57.73v-110H120.74v110c0,25.46,1,45.88-43.1,45.88-1.67,0-3.25,0-4.8-.1v11.88C74.4,297,76,297,77.64,297Z" transform="translate(-72.84 -125.95)"/><path class="cls-1" d="M762.84,267.71a8.7,8.7,0,1,1,8.7-8.7,8.71,8.71,0,0,1-8.7,8.7Zm0-16.28a7.58,7.58,0,1,0,7.57,7.58,7.59,7.59,0,0,0-7.57-7.58Z" transform="translate(-72.84 -125.95)"/><path class="cls-1" d="M763.4,260.17h-2.79V264h-1.33V254h4.45c2.53,0,3.51,1,3.51,3a2.75,2.75,0,0,1-2.42,3.05l2.26,3.93h-1.44Zm.31-1.25c1.37,0,2.15-.4,2.15-1.85s-.76-1.78-2.19-1.78h-3.06v3.63Z" transform="translate(-72.84 -125.95)"/></svg>