<?xml version="1.0" encoding="utf-8"?>
<!-- Generator: Adobe Illustrator 22.0.1, SVG Export Plug-In . SVG Version: 6.00 Build 0)  -->
<svg version="1.1" id="Layer_1" xmlns="http://www.w3.org/2000/svg" xmlns:xlink="http://www.w3.org/1999/xlink" x="0px" y="0px"
	 viewBox="0 0 720 540" style="enable-background:new 0 0 720 540;" xml:space="preserve">
<style type="text/css">
	.st0{display:none;clip-path:url(#SVGID_2_);fill-rule:evenodd;clip-rule:evenodd;fill:#FFFFFF;}
	.st1{display:none;clip-path:url(#SVGID_2_);}
	.st2{display:inline;}
	.st3{font-family:'Verdana';}
	.st4{font-size:16px;}
	.st5{clip-path:url(#SVGID_2_);fill:none;stroke:#000000;stroke-width:0.75;stroke-linejoin:round;stroke-miterlimit:10;}
	.st6{clip-path:url(#SVGID_2_);}
	.st7{fill:#0000FF;}
	.st8{font-family:'ArialMT';}
	.st9{font-size:32px;}

		.st10{clip-path:url(#SVGID_2_);fill:none;stroke:#0433FF;stroke-width:4.5;stroke-linecap:square;stroke-linejoin:round;stroke-miterlimit:10;}
	.st11{clip-path:url(#SVGID_2_);fill-rule:evenodd;clip-rule:evenodd;fill:#0433FF;}
	.st12{font-family:'Arial-BoldMT';}
	.st13{font-size:18px;}
	.st14{letter-spacing:-1;}
	.st15{clip-path:url(#SVGID_2_);fill-rule:evenodd;clip-rule:evenodd;fill:#FFFFFF;}
	.st16{clip-path:url(#SVGID_2_);fill:none;stroke:#B2C0CC;stroke-width:0.75;stroke-linejoin:round;stroke-miterlimit:10;}
	.st17{clip-path:url(#SVGID_2_);fill:none;stroke:#00BA63;stroke-width:2.25;stroke-linejoin:round;stroke-miterlimit:10;}
	.st18{clip-path:url(#SVGID_2_);fill-rule:evenodd;clip-rule:evenodd;fill:#00BA63;}
	.st19{fill:#00B050;}
</style>
<g>
	<defs>
		<rect id="SVGID_1_" width="720" height="540"/>
	</defs>
	<clipPath id="SVGID_2_">
		<use xlink:href="#SVGID_1_"  style="overflow:visible;"/>
	</clipPath>
	<rect y="0" class="st0" width="720" height="540"/>
	<g class="st1">
		<text transform="matrix(1 0 0 1 616.2661 532.0463)" class="st2 st3 st4">Confidential </text>
	</g>
	<line class="st5" x1="18.1" y1="270" x2="18.1" y2="387.1"/>
	<line class="st5" x1="468.1" y1="270.9" x2="468.1" y2="387.1"/>
	<g class="st6">
		<text transform="matrix(1 0 0 1 11.6432 48.4743)" class="st7 st8 st9">Watershed moment </text>
	</g>
	<line class="st10" x1="12" y1="330" x2="707.2" y2="330.1"/>
	<polygon class="st11" points="691.5,318.9 714,330.1 691.5,341.4 	"/>
	<g class="st6">
		<text transform="matrix(1 0 0 1 7.1989 411.5984)" class="st7 st12 st13">Bell: telephone </text>
	</g>
	<g class="st6">
		<text transform="matrix(1 0 0 1 19.1989 362.5172)" class="st8 st4">1876 </text>
	</g>
	<g class="st6">
		<text transform="matrix(1 0 0 1 7.1991 262.5172)"><tspan x="0" y="0" class="st7 st12 st13 st14">T</tspan><tspan x="9.7" y="0" class="st7 st12 st13">esla: multi-phase</tspan><tspan x="156.7" y="0" class="st7 st12 st13"> </tspan><tspan x="161" y="0" class="st7 st12 st13">AC </tspan></text>
	</g>
	<g class="st6">
		<text transform="matrix(1 0 0 1 19.1989 308.5172)" class="st8 st4">1888 </text>
	</g>
	<rect x="102" y="293.3" class="st15" width="308.7" height="65.4"/>
	<rect x="102" y="293.3" class="st5" width="308.7" height="65.4"/>
	<g class="st6">
		<text transform="matrix(1 0 0 1 109.1989 312.8953)" class="st8 st4">both started as natural monopolies </text>
	</g>
	<g class="st6">
		<text transform="matrix(1 0 0 1 109.1989 331.8953)" class="st8 st4">both provided a single commodity </text>
	</g>
	<g class="st6">
		<text transform="matrix(1 0 0 1 109.1989 350.8953)" class="st8 st4">both grew rapidly through two WWs </text>
	</g>
	<g class="st6">
		<text transform="matrix(1 0 0 1 470.9491 363.4359)" class="st8 st4">1980-90s </text>
	</g>
	<g class="st6">
		<text transform="matrix(1 0 0 1 470.9491 309.4359)" class="st8 st4">1980-90s </text>
	</g>
	<g class="st6">
		<text transform="matrix(1 0 0 1 439.1987 238.7065)" class="st8 st4">deregulation </text>
	</g>
	<g class="st6">
		<text transform="matrix(1 0 0 1 439.1987 257.7065)" class="st8 st4">started </text>
	</g>
	<rect x="452.5" y="387.1" class="st15" width="116" height="46"/>
	<g class="st6">
		<text transform="matrix(1 0 0 1 459.6621 406.7065)" class="st8 st4">deregulation </text>
	</g>
	<g class="st6">
		<text transform="matrix(1 0 0 1 459.6621 425.7065)" class="st8 st4">started </text>
	</g>
	<rect x="109.3" y="102.2" class="st16" width="464.2" height="94.5"/>
	<g class="st6">
		<text transform="matrix(1 0 0 1 116.4929 123.8208)" class="st8 st13">Energy network will undergo similar </text>
	</g>
	<g class="st6">
		<text transform="matrix(1 0 0 1 404.6071 123.8208)" class="st7 st8 st13">architectural  </text>
	</g>
	<g class="st6">
		<text transform="matrix(1 0 0 1 116.4929 144.8207)" class="st7 st8 st13">transformation</text>
	</g>
	<g class="st1">
		<text transform="matrix(1 0 0 1 231.5417 144.8207)" class="st2 st12 st13"> </text>
	</g>
	<g class="st6">
		<text transform="matrix(1 0 0 1 236.5427 144.8207)" class="st8 st13">that phone network went through </text>
	</g>
	<g class="st6">
		<text transform="matrix(1 0 0 1 116.4929 166.8207)"><tspan x="0" y="0" class="st8 st13">in the last two decades to become the world</tspan><tspan x="350.2" y="0" class="st8 st13">’</tspan><tspan x="353.9" y="0" class="st8 st13">s </tspan></text>
	</g>
	<g class="st6">
		<text transform="matrix(1 0 0 1 116.4929 187.8207)"><tspan x="0" y="0" class="st8 st13">largest and most complex Io</tspan><tspan x="225.1" y="0" class="st8 st13">T</tspan><tspan x="235.8" y="0" class="st8 st13"> </tspan></text>
	</g>
	<line class="st17" x1="558" y1="240" x2="657.7" y2="240.1"/>
	<polygon class="st18" points="653.2,240.1 648.8,234.5 660,240.1 648.7,245.7 	"/>
	<g class="st6">
		<text transform="matrix(1 0 0 1 673.1987 243.6283)"><tspan x="0" y="0" class="st19 st8 st4">Io</tspan><tspan x="13.3" y="0" class="st19 st8 st4">T</tspan><tspan x="22.8" y="0" class="st19 st8 st4"> </tspan></text>
	</g>
	<line class="st5" x1="450.1" y1="330.1" x2="450.1" y2="443.3"/>
	<g class="st6">
		<text transform="matrix(1 0 0 1 377.1988 472.7061)"><tspan x="0" y="0" class="st8 st4">1969: DAR</tspan><tspan x="78.3" y="0" class="st8 st4 st14">P</tspan><tspan x="87.8" y="0" class="st8 st4">Anet </tspan></text>
	</g>
	<g class="st6">
		<text transform="matrix(1 0 0 1 614.7509 459.9852)" class="st19 st8 st4">convergence </text>
	</g>
	<g class="st6">
		<text transform="matrix(1 0 0 1 634.3212 478.9852)" class="st19 st8 st4">to Internet </text>
	</g>
	<line class="st17" x1="568.5" y1="410.1" x2="595.2" y2="441.6"/>
	<polygon class="st18" points="592.3,438.2 593.7,431.1 596.7,443.3 585.1,438.4 	"/>
	<line class="st17" x1="528.7" y1="468.4" x2="586.4" y2="468.6"/>
	<polygon class="st18" points="581.9,468.6 577.4,462.9 588.7,468.6 577.4,474.2 	"/>
</g>
</svg>
